<svg xmlns="http://www.w3.org/2000/svg" viewBox="0 0 1000 750">
  <rect width="1000" height="750" fill="#e8f4f8"/>
  <g fill="#f5e9d4">
    <path d="M 973.7,749.3 L 975.2,757.4 L 972.7,756.1 L 970.8,756.7 L 969.5,753.9 L 969.4,746.3 L 973.7,749.3 Z"/>
    <path d="M 759.7,737.6 L 762.9,745.5 L 768.8,741.7 L 771.8,745.9 L 776.1,749.8 L 775.2,754.3 L 777.1,762.9 L 778.5,767.8 L 780.8,769.1 L 783.3,777.6 L 782.4,782.8 L 785.3,789.6 L 795.2,794.8 L 801.6,799.6 L 807.7,803.9 L 806.5,806.3 L 811.7,812.6 L 815.3,823.4 L 818.9,821.2 L 822.6,825.6 L 824.8,824.0 L 826.4,834.6 L 832.8,840.8 L 837.0,844.6 L 844.1,852.7 L 846.7,860.7 L 846.9,866.4 L 846.3,872.6 L 850.6,881.1 L 850.1,890.0 L 848.5,894.6 L 846.1,903.5 L 846.3,909.2 L 844.5,916.4 L 840.5,925.5 L 833.7,930.4 L 830.4,938.2 L 827.4,943.1 L 824.7,951.7 L 821.2,956.7 L 818.9,964.2 L 817.7,971.1 L 818.2,974.3 L 812.9,977.7 L 802.8,978.1 L 794.4,982.2 L 790.2,986.1 L 784.7,990.4 L 777.2,985.9 L 771.6,984.2 L 773.0,979.0 L 768.1,980.9 L 760.1,988.1 L 752.2,985.4 L 747.1,983.8 L 741.9,983.1 L 733.1,980.2 L 727.2,974.0 L 725.5,966.4 L 723.4,961.4 L 718.9,957.3 L 710.2,956.1 L 713.2,951.3 L 711.0,943.8 L 706.5,950.8 L 698.4,952.6 L 703.2,947.1 L 704.6,941.3 L 708.1,936.4 L 707.4,929.0 L 700.0,937.5 L 694.3,940.9 L 690.8,948.9 L 683.7,944.8 L 684.0,939.5 L 678.3,932.2 L 673.5,928.5 L 675.2,926.2 L 663.6,920.1 L 657.2,919.8 L 648.4,915.0 L 632.1,915.9 L 620.4,919.5 L 610.0,922.8 L 601.4,922.2 L 591.7,927.3 L 583.8,929.6 L 582.1,934.8 L 578.7,938.9 L 571.0,939.1 L 565.3,940.0 L 557.3,938.2 L 550.7,939.3 L 544.5,939.8 L 539.1,945.1 L 536.4,944.6 L 531.9,947.5 L 527.5,950.6 L 520.9,950.3 L 514.8,950.3 L 505.1,943.9 L 500.2,942.0 L 500.4,936.2 L 505.0,934.9 L 506.5,932.6 L 506.2,929.0 L 507.3,922.1 L 506.3,916.1 L 501.5,906.0 L 500.0,900.3 L 500.4,894.6 L 496.7,888.1 L 496.5,885.2 L 492.5,881.2 L 491.4,873.3 L 486.2,865.4 L 484.9,861.2 L 488.9,865.5 L 485.8,856.2 L 490.3,859.1 L 493.0,863.0 L 492.9,857.9 L 488.4,850.0 L 487.5,846.8 L 485.4,843.8 L 486.4,838.1 L 488.2,835.6 L 489.5,830.6 L 488.5,824.8 L 492.3,817.6 L 493.0,825.2 L 496.8,818.3 L 504.2,815.0 L 508.6,810.7 L 515.6,807.0 L 519.7,806.2 L 522.2,807.5 L 529.4,803.7 L 534.9,802.6 L 536.3,800.4 L 538.7,799.5 L 543.7,799.8 L 553.2,796.8 L 558.2,792.4 L 560.5,787.1 L 565.8,782.0 L 566.2,778.0 L 566.5,772.5 L 572.8,764.1 L 576.7,772.7 L 580.5,770.7 L 577.3,766.0 L 580.2,761.1 L 584.2,763.3 L 585.3,755.7 L 590.2,750.8 L 592.4,746.8 L 597.0,745.1 L 597.1,742.3 L 601.1,743.5 L 601.3,741.0 L 605.3,739.5 L 609.7,738.2 L 616.4,742.8 L 621.5,748.7 L 627.1,748.8 L 632.9,749.7 L 631.0,744.2 L 635.4,736.2 L 639.4,733.6 L 638.0,731.1 L 642.0,725.4 L 647.5,721.8 L 652.1,723.0 L 659.8,721.1 L 659.6,716.0 L 653.0,712.7 L 657.8,711.3 L 663.8,713.8 L 668.6,717.9 L 676.3,720.4 L 678.9,719.4 L 684.5,722.5 L 689.8,719.6 L 693.3,720.5 L 695.4,718.6 L 699.6,723.5 L 697.1,728.9 L 693.7,732.9 L 690.6,733.2 L 691.6,737.2 L 688.9,742.2 L 685.7,747.2 L 686.4,750.0 L 693.6,755.5 L 700.6,758.7 L 705.3,762.2 L 711.8,768.1 L 714.4,768.1 L 719.2,770.6 L 720.6,773.7 L 729.2,777.1 L 735.2,773.7 L 737.0,768.3 L 738.9,763.9 L 740.0,758.4 L 742.7,750.4 L 741.5,745.6 L 742.1,742.7 L 741.1,737.0 L 742.3,729.4 L 744.0,727.4 L 742.6,724.1 L 744.8,718.8 L 746.5,713.3 L 746.8,710.4 L 750.1,706.7 L 752.7,711.6 L 753.3,717.8 L 755.6,719.1 L 756.0,723.3 L 759.3,728.3 L 760.0,734.0 L 759.7,737.6 Z"/>
    <path d="M 928.4,704.8 L 930.9,708.3 L 924.5,708.2 L 921.1,702.0 L 926.5,704.5 L 928.4,704.8 Z"/>
    <path d="M 552.0,702.4 L 548.1,702.6 L 536.1,695.6 L 544.5,693.6 L 549.3,696.7 L 552.5,699.7 L 552.0,702.4 Z"/>
    <path d="M 916.8,698.7 L 913.3,699.0 L 907.7,697.9 L 905.8,696.4 L 906.4,692.4 L 912.4,694.0 L 915.4,696.1 L 916.8,698.7 Z"/>
    <path d="M 924.4,696.0 L 923.0,697.8 L 916.3,689.2 L 914.4,683.2 L 917.5,683.2 L 920.7,691.2 L 924.4,696.0 Z"/>
    <path d="M 585.8,701.4 L 578.0,703.6 L 576.9,702.4 L 577.7,699.0 L 581.6,692.9 L 590.6,688.9 L 591.7,686.6 L 599.5,684.3 L 605.9,684.0 L 608.7,682.7 L 612.1,684.0 L 608.8,686.7 L 599.3,691.1 L 591.7,693.9 L 585.8,701.4 Z"/>
    <path d="M 526.4,681.0 L 529.6,683.6 L 535.3,682.8 L 537.5,687.1 L 527.0,689.1 L 520.7,690.4 L 515.8,690.3 L 518.9,684.6 L 523.9,684.5 L 526.4,681.0 Z"/>
    <path d="M 571.9,680.9 L 570.5,686.5 L 556.9,689.3 L 544.8,688.1 L 544.7,684.4 L 552.0,682.4 L 557.7,685.4 L 563.7,684.6 L 571.9,680.9 Z"/>
    <path d="M 908.0,683.4 L 908.3,685.4 L 901.2,681.1 L 896.2,677.5 L 892.8,674.2 L 894.2,673.2 L 898.4,675.6 L 905.8,680.2 L 908.0,683.4 Z"/>
    <path d="M 886.7,673.5 L 884.9,674.0 L 880.9,671.8 L 877.2,667.7 L 877.7,666.0 L 883.1,670.2 L 886.7,673.5 Z"/>
    <path d="M 442.0,667.8 L 459.4,668.8 L 461.5,664.7 L 478.3,669.5 L 481.6,675.9 L 495.3,677.8 L 506.4,683.7 L 496.0,687.5 L 486.0,683.5 L 477.8,683.8 L 468.4,683.0 L 459.9,681.2 L 449.3,677.4 L 442.7,676.4 L 438.9,677.7 L 422.3,673.5 L 420.7,669.2 L 412.4,668.5 L 418.7,659.0 L 429.7,659.5 L 437.0,663.5 L 440.8,664.2 L 442.0,667.8 Z"/>
    <path d="M 679.3,662.1 L 674.6,669.0 L 673.8,661.4 L 675.4,657.8 L 677.3,654.5 L 679.3,657.4 L 679.3,662.1 Z"/>
    <path d="M 871.6,668.2 L 869.1,669.2 L 865.2,665.4 L 861.2,659.0 L 859.2,651.4 L 860.5,650.4 L 861.5,653.4 L 864.2,655.7 L 868.6,662.0 L 872.9,665.4 L 871.6,668.2 Z"/>
    <path d="M 836.2,654.8 L 831.4,655.6 L 830.0,658.4 L 825.0,660.8 L 820.4,663.2 L 815.5,663.2 L 808.1,660.3 L 802.9,657.5 L 803.7,654.4 L 811.8,655.8 L 816.8,655.1 L 818.1,650.3 L 819.5,650.0 L 820.3,655.3 L 825.5,654.6 L 828.1,651.1 L 833.2,647.6 L 832.2,641.7 L 837.6,641.5 L 839.4,643.1 L 839.3,648.7 L 836.2,654.8 Z"/>
    <path d="M 611.4,634.6 L 608.0,637.9 L 601.7,636.1 L 599.9,631.8 L 609.1,631.3 L 611.4,634.6 Z"/>
    <path d="M 640.6,630.9 L 644.0,638.6 L 636.3,634.5 L 628.7,633.6 L 623.6,634.3 L 617.3,633.9 L 619.4,628.4 L 630.6,628.0 L 640.6,630.9 Z"/>
    <path d="M 846.7,645.0 L 843.9,647.7 L 842.2,641.8 L 840.1,637.9 L 835.9,634.6 L 830.8,630.4 L 824.2,627.4 L 826.7,625.0 L 831.6,627.8 L 834.7,630.0 L 838.5,632.4 L 842.2,636.6 L 845.6,639.8 L 846.7,645.0 Z"/>
    <path d="M 674.0,611.5 L 676.6,627.7 L 686.0,633.7 L 693.6,623.1 L 704.0,617.0 L 712.1,617.0 L 719.9,620.5 L 726.6,624.1 L 736.4,626.0 L 752.1,632.9 L 768.9,638.6 L 775.2,643.7 L 780.3,648.8 L 781.7,654.7 L 796.8,660.8 L 799.0,666.1 L 790.6,667.2 L 792.7,673.9 L 800.8,680.4 L 806.7,691.0 L 811.9,690.7 L 811.5,695.1 L 818.5,696.8 L 815.8,698.7 L 825.5,702.9 L 824.5,705.8 L 818.4,706.5 L 816.2,703.9 L 808.4,702.8 L 799.2,701.3 L 792.1,694.9 L 787.0,689.4 L 782.3,680.7 L 770.4,676.3 L 762.7,679.2 L 757.1,682.5 L 758.3,689.8 L 751.2,693.3 L 746.1,691.6 L 736.7,691.2 L 728.6,683.0 L 719.3,681.0 L 717.1,683.8 L 705.6,684.1 L 709.4,676.0 L 715.2,673.2 L 712.8,662.3 L 708.4,653.9 L 690.8,645.5 L 683.3,644.6 L 669.7,635.4 L 667.0,640.2 L 663.5,641.1 L 661.4,637.5 L 661.4,633.1 L 654.5,628.2 L 664.2,624.6 L 670.7,624.8 L 670.0,622.1 L 656.7,622.1 L 653.1,616.2 L 644.9,614.3 L 641.1,609.4 L 653.3,607.0 L 658.0,603.7 L 672.6,607.8 L 674.0,611.5 Z"/>
    <path d="M 593.1,585.8 L 585.8,595.7 L 579.0,597.6 L 570.2,595.7 L 555.1,596.2 L 547.1,597.6 L 545.8,605.2 L 554.0,614.1 L 558.9,609.6 L 575.8,606.2 L 575.1,610.8 L 571.1,609.3 L 567.2,615.2 L 559.2,619.0 L 567.8,631.9 L 566.1,635.3 L 574.3,646.8 L 574.2,653.4 L 569.4,656.3 L 565.8,652.8 L 570.2,644.6 L 561.3,648.5 L 559.0,645.7 L 560.2,641.9 L 553.6,636.0 L 554.3,626.3 L 548.2,629.3 L 549.0,641.0 L 549.4,655.3 L 543.6,656.7 L 539.7,653.8 L 542.3,644.6 L 540.9,634.9 L 537.1,634.9 L 534.3,628.0 L 538.0,621.5 L 539.3,613.5 L 543.9,598.5 L 545.8,594.3 L 553.5,586.9 L 560.6,589.9 L 572.1,591.2 L 582.5,590.8 L 591.5,583.6 L 593.1,585.8 Z"/>
    <path d="M 624.4,588.7 L 624.0,597.4 L 619.3,596.4 L 617.9,602.5 L 621.6,607.8 L 619.1,609.0 L 615.4,602.7 L 612.7,589.9 L 614.6,581.9 L 617.6,578.3 L 618.2,583.7 L 623.6,584.6 L 624.4,588.7 Z"/>
    <path d="M 416.5,658.5 L 406.5,658.7 L 398.8,650.4 L 387.1,642.2 L 383.2,636.1 L 376.4,628.0 L 371.8,620.5 L 364.9,606.5 L 356.9,598.2 L 354.3,589.6 L 350.9,581.8 L 342.7,575.5 L 338.0,566.9 L 331.1,561.3 L 321.6,550.3 L 320.8,545.2 L 326.7,545.6 L 340.8,547.5 L 348.8,557.3 L 355.8,564.1 L 360.9,568.3 L 369.5,579.0 L 378.7,579.2 L 386.3,586.0 L 391.6,594.4 L 398.5,599.0 L 394.9,607.1 L 400.1,610.6 L 403.4,610.8 L 404.9,617.8 L 408.1,623.4 L 414.7,624.3 L 419.2,630.6 L 416.9,643.1 L 416.5,658.5 Z"/>
    <path d="M 526.1,581.7 L 536.3,591.0 L 525.6,592.2 L 522.5,599.0 L 522.9,608.0 L 514.2,614.9 L 513.9,624.8 L 510.4,640.1 L 509.1,636.6 L 498.8,641.1 L 495.2,635.0 L 488.7,634.4 L 484.2,631.2 L 473.3,634.8 L 470.0,629.9 L 464.1,630.5 L 456.6,629.3 L 455.2,615.9 L 450.7,613.1 L 446.3,604.6 L 445.0,595.8 L 446.1,586.6 L 451.5,579.9 L 458.1,583.4 L 465.2,581.5 L 467.0,573.0 L 470.9,571.1 L 481.8,569.0 L 488.3,561.1 L 492.8,554.7 L 496.4,551.0 L 504.1,545.5 L 511.1,538.6 L 515.7,530.8 L 519.4,530.7 L 524.0,535.8 L 524.4,540.1 L 530.4,542.9 L 538.0,545.9 L 537.4,549.8 L 531.3,550.3 L 532.9,555.2 L 526.2,558.6 L 521.0,567.7 L 527.7,577.1 L 526.1,581.7 Z"/>
    <path d="M 603.4,515.9 L 604.4,522.5 L 604.9,528.1 L 601.8,537.3 L 598.5,527.1 L 594.2,532.1 L 597.1,539.5 L 594.5,544.2 L 583.8,538.4 L 581.3,531.1 L 584.0,526.4 L 578.3,521.7 L 575.4,525.8 L 571.1,525.4 L 564.4,531.0 L 562.9,528.1 L 566.5,519.7 L 572.2,516.8 L 577.2,513.1 L 580.4,517.6 L 587.3,514.9 L 588.8,510.4 L 595.2,510.1 L 594.7,502.4 L 602.0,507.1 L 602.8,512.2 L 603.4,515.9 Z"/>
    <path d="M 192.9,538.0 L 185.0,540.3 L 180.7,532.4 L 179.0,518.0 L 183.2,501.8 L 189.4,507.3 L 193.7,514.4 L 198.1,524.8 L 196.7,535.2 L 192.9,538.0 Z"/>
    <path d="M 581.7,497.2 L 578.4,500.5 L 575.5,506.8 L 572.7,509.8 L 567.1,502.9 L 569.0,500.2 L 571.2,497.4 L 572.2,491.2 L 577.3,490.6 L 575.8,497.3 L 582.5,487.7 L 581.7,497.2 Z"/>
    <path d="M 531.9,506.8 L 519.8,516.3 L 524.2,509.3 L 530.8,503.2 L 536.2,496.2 L 541.0,486.3 L 542.6,494.5 L 536.6,500.0 L 531.9,506.8 Z"/>
    <path d="M 562.6,481.1 L 568.0,484.2 L 573.8,484.2 L 573.6,488.3 L 569.4,492.6 L 563.7,495.6 L 563.3,490.9 L 564.0,485.8 L 562.6,481.1 Z"/>
    <path d="M 595.5,478.4 L 598.0,489.5 L 591.0,486.9 L 591.2,490.2 L 593.4,496.4 L 589.1,498.7 L 588.7,491.6 L 586.0,491.1 L 584.6,485.0 L 589.9,485.8 L 589.8,482.1 L 584.2,474.4 L 593.0,474.6 L 595.5,478.4 Z"/>
    <path d="M 559.3,469.3 L 556.9,477.9 L 553.0,473.0 L 548.4,465.3 L 556.2,465.7 L 559.3,469.3 Z"/>
    <path d="M 557.5,415.0 L 563.1,417.8 L 565.9,415.2 L 566.7,417.8 L 565.2,421.9 L 568.3,429.1 L 565.9,437.4 L 560.6,440.7 L 559.1,448.8 L 561.2,456.7 L 566.0,457.8 L 570.0,456.6 L 581.4,462.2 L 580.5,467.6 L 583.5,470.0 L 582.5,474.6 L 575.4,469.7 L 572.1,464.5 L 569.7,468.1 L 564.0,462.2 L 555.7,463.6 L 551.2,461.4 L 551.6,457.3 L 554.5,454.7 L 551.8,452.4 L 550.6,456.0 L 546.1,450.3 L 544.7,445.9 L 544.4,436.4 L 548.1,439.7 L 549.0,424.0 L 552.0,414.9 L 557.5,415.0 Z"/>
    <path d="M 457.6,413.2 L 449.8,418.0 L 442.3,414.9 L 442.1,406.3 L 446.5,401.8 L 456.5,399.0 L 461.7,399.2 L 463.7,403.0 L 459.7,407.4 L 457.6,413.2 Z"/>
    <path d="M 556.1,372.1 L 552.2,380.3 L 547.5,371.9 L 546.4,364.4 L 551.8,354.6 L 559.0,347.0 L 563.2,350.0 L 561.6,356.1 L 556.1,372.1 Z"/>
    <path d="M 678.5,258.5 L 679.7,261.9 L 674.6,268.0 L 670.8,264.8 L 666.2,267.1 L 663.8,273.0 L 657.8,270.1 L 657.9,265.4 L 662.9,259.4 L 668.1,260.6 L 671.9,256.4 L 678.5,258.5 Z"/>
    <path d="M 736.1,228.6 L 732.7,236.6 L 734.3,241.6 L 729.6,248.6 L 718.0,253.3 L 702.0,253.9 L 689.0,265.4 L 682.9,261.5 L 682.5,254.0 L 666.7,256.2 L 656.0,261.0 L 645.3,261.1 L 654.5,268.5 L 648.5,285.5 L 642.6,289.7 L 638.2,285.8 L 640.4,276.8 L 634.7,273.9 L 631.0,267.0 L 639.6,264.0 L 644.3,257.7 L 653.5,252.5 L 660.2,245.7 L 678.3,242.7 L 688.0,244.7 L 697.5,227.0 L 703.6,231.7 L 716.9,221.7 L 722.1,217.8 L 727.8,205.6 L 726.2,194.4 L 730.1,188.0 L 739.7,186.2 L 744.7,200.1 L 744.4,208.2 L 736.0,218.3 L 736.1,228.6 Z"/>
    <path d="M 762.8,158.3 L 769.2,160.4 L 775.6,156.2 L 777.7,167.4 L 764.2,170.1 L 756.2,180.0 L 741.9,173.2 L 737.0,184.2 L 726.9,184.3 L 725.6,174.4 L 730.1,166.7 L 739.8,166.1 L 742.5,152.3 L 745.2,144.5 L 755.8,154.9 L 762.8,158.3 Z"/>
    <path d="M 760.4,92.5 L 769.6,110.2 L 756.1,106.9 L 750.5,121.4 L 759.4,131.6 L 759.1,138.6 L 752.3,132.6 L 746.3,140.3 L 744.6,131.9 L 745.6,122.2 L 744.6,111.4 L 746.7,103.8 L 747.1,90.5 L 741.8,80.6 L 742.6,67.0 L 751.0,62.4 L 747.4,57.7 L 751.4,56.3 L 753.8,63.0 L 756.9,72.6 L 756.7,82.4 L 760.4,92.5 Z"/>
    <path d="M 427.0,-169.7 L 429.5,-164.8 L 437.8,-167.2 L 464.3,-167.1 L 484.8,-162.2 L 492.1,-158.5 L 489.9,-153.3 L 479.8,-150.3 L 455.9,-144.8 L 449.1,-141.8 L 460.4,-140.4 L 473.8,-137.9 L 482.0,-139.8 L 486.6,-133.4 L 490.6,-135.9 L 505.2,-137.5 L 534.3,-135.9 L 536.5,-131.2 L 574.6,-129.7 L 575.1,-137.4 L 594.4,-135.6 L 608.9,-135.7 L 623.6,-130.4 L 627.7,-124.0 L 622.4,-119.8 L 633.8,-111.9 L 648.1,-107.9 L 656.8,-118.4 L 671.4,-113.9 L 686.9,-116.6 L 704.5,-113.5 L 711.2,-116.3 L 726.1,-114.9 L 719.5,-124.2 L 731.5,-128.5 L 813.6,-122.0 L 821.4,-116.1 L 845.2,-108.4 L 881.9,-110.3 L 900.0,-108.7 L 907.5,-104.5 L 906.4,-97.2 L 917.6,-94.4 L 929.8,-96.4 L 945.9,-96.7 L 963.1,-94.7 L 980.3,-95.8 L 996.2,-86.9 L 1007.4,-90.1 L 1000.1,-96.5 L 1004.1,-101.0 L 1033.1,-98.2 L 1052.0,-98.8 L 1078.2,-94.0 L 1090.9,-89.6 L 1090.9,-49.8 L 1090.8,-49.7 L 1079.2,-45.3 L 1067.4,-46.1 L 1075.6,-40.8 L 1081.0,-32.5 L 1085.2,-29.8 L 1086.2,-25.7 L 1083.9,-23.0 L 1066.9,-25.2 L 1041.5,-17.7 L 1033.5,-16.5 L 1019.5,-9.5 L 1006.3,-3.4 L 1003.0,1.2 L 990.0,-5.7 L 966.3,2.1 L 962.2,-1.6 L 953.4,2.7 L 941.3,1.3 L 938.3,7.9 L 927.4,17.6 L 927.8,21.6 L 938.1,23.8 L 936.9,38.4 L 928.5,38.8 L 924.6,47.1 L 928.3,51.4 L 912.4,56.6 L 909.3,68.0 L 895.7,70.4 L 893.0,80.6 L 879.9,89.9 L 876.5,83.0 L 872.7,68.4 L 867.6,46.2 L 871.9,32.3 L 879.6,26.4 L 880.1,21.7 L 894.2,19.4 L 910.5,6.9 L 926.1,-3.4 L 942.5,-11.4 L 949.8,-25.5 L 938.7,-24.7 L 933.3,-16.4 L 910.2,-5.4 L 902.7,-17.7 L 879.3,-14.3 L 856.5,2.4 L 864.0,8.5 L 843.7,11.2 L 829.7,12.2 L 830.3,5.0 L 816.2,3.4 L 805.0,8.4 L 777.2,6.6 L 747.3,9.6 L 717.8,29.1 L 683.0,52.7 L 697.3,54.0 L 701.8,60.2 L 710.6,62.4 L 716.4,57.5 L 726.4,58.1 L 739.5,69.1 L 739.8,77.6 L 732.7,87.6 L 731.9,99.5 L 727.8,115.5 L 714.1,130.0 L 711.1,136.9 L 698.7,148.6 L 686.5,160.1 L 680.6,166.0 L 668.5,171.9 L 662.8,172.0 L 657.1,167.2 L 644.9,174.5 L 643.5,177.8 L 640.0,177.2 L 636.1,180.6 L 633.3,184.0 L 633.7,191.2 L 629.0,193.4 L 627.4,195.1 L 623.9,198.1 L 617.9,199.7 L 613.9,202.4 L 613.7,206.8 L 612.6,207.9 L 616.2,209.5 L 621.4,213.9 L 629.2,225.7 L 631.5,232.2 L 631.5,243.7 L 628.1,249.2 L 619.9,251.1 L 612.6,255.2 L 604.4,256.1 L 603.4,250.7 L 605.1,243.2 L 601.1,232.7 L 607.8,231.1 L 601.6,222.5 L 597.2,220.6 L 596.1,222.5 L 593.4,223.3 L 593.1,221.4 L 590.7,220.5 L 588.3,218.9 L 590.8,214.5 L 592.9,213.3 L 592.1,211.5 L 594.4,206.1 L 593.8,204.5 L 588.5,203.4 L 584.2,200.7 L 571.5,203.6 L 564.8,208.3 L 555.0,211.0 L 559.9,206.4 L 558.0,202.5 L 565.2,195.8 L 560.4,190.5 L 552.4,194.1 L 542.2,201.0 L 536.6,207.5 L 527.7,208.0 L 523.0,212.6 L 527.8,219.4 L 535.3,221.0 L 535.6,225.5 L 542.8,228.4 L 552.9,221.3 L 561.0,225.2 L 566.9,225.5 L 568.4,230.7 L 555.5,233.5 L 551.2,238.9 L 542.4,243.9 L 537.7,250.9 L 547.5,256.4 L 551.1,266.2 L 556.6,275.4 L 562.8,283.1 L 562.7,290.5 L 556.9,293.2 L 559.1,298.6 L 564.5,301.7 L 563.1,309.8 L 560.8,317.7 L 555.7,318.6 L 549.1,329.5 L 541.7,342.6 L 533.2,354.5 L 520.7,363.8 L 508.1,372.2 L 497.9,373.3 L 492.3,377.8 L 489.2,374.5 L 484.0,379.5 L 471.3,384.5 L 461.7,386.0 L 458.6,396.6 L 453.5,397.2 L 451.2,389.9 L 453.3,386.0 L 441.1,382.8 L 436.8,384.5 L 424.7,393.0 L 417.1,402.5 L 415.1,409.4 L 422.1,420.0 L 430.6,433.0 L 438.8,439.2 L 444.3,447.2 L 448.5,465.7 L 447.3,483.3 L 439.7,489.9 L 429.3,496.4 L 421.9,504.7 L 410.5,514.0 L 407.2,507.6 L 409.8,500.8 L 403.0,495.1 L 395.4,493.7 L 391.7,488.5 L 387.1,478.1 L 379.0,473.5 L 371.2,473.7 L 372.5,465.9 L 364.5,465.9 L 363.8,476.9 L 358.9,491.5 L 355.9,500.4 L 356.6,507.6 L 362.5,507.9 L 366.2,517.0 L 367.8,525.7 L 372.9,531.4 L 378.4,532.6 L 383.1,537.8 L 385.2,538.7 L 390.6,544.8 L 394.4,551.4 L 394.9,558.2 L 393.9,562.7 L 394.8,566.2 L 395.5,572.1 L 398.7,574.8 L 402.3,583.7 L 402.1,587.1 L 395.6,587.7 L 387.0,580.3 L 376.3,572.4 L 375.2,567.3 L 370.0,560.6 L 368.7,552.3 L 365.4,546.9 L 366.4,539.6 L 364.4,535.4 L 360.8,531.5 L 359.3,526.6 L 354.4,520.9 L 350.0,516.2 L 348.5,522.1 L 346.8,516.5 L 347.8,510.3 L 350.5,500.7 L 349.6,493.2 L 352.4,485.6 L 349.3,479.7 L 350.1,468.8 L 346.4,463.6 L 343.4,451.6 L 341.8,439.0 L 337.9,430.7 L 331.9,435.7 L 321.5,442.9 L 316.4,442.0 L 310.8,439.6 L 313.9,427.2 L 312.0,417.9 L 304.9,406.3 L 306.0,402.7 L 300.7,401.4 L 294.3,393.3 L 291.7,388.1 L 291.1,383.0 L 289.4,378.2 L 285.6,372.3 L 277.2,371.9 L 278.1,376.1 L 275.2,381.6 L 271.3,379.6 L 270.0,381.4 L 267.4,380.3 L 263.9,379.4 L 262.6,383.1 L 256.4,383.0 L 245.2,385.0 L 245.8,392.6 L 240.9,398.5 L 227.8,405.2 L 217.6,417.0 L 210.8,423.3 L 201.8,429.8 L 201.7,434.4 L 197.2,436.9 L 189.0,440.5 L 184.8,441.0 L 182.0,448.6 L 183.9,461.6 L 184.4,469.9 L 180.6,479.4 L 180.5,496.4 L 175.8,496.9 L 171.7,504.5 L 174.5,507.8 L 166.2,510.7 L 163.1,517.5 L 159.5,520.3 L 150.8,511.0 L 146.6,497.0 L 143.2,486.9 L 140.0,482.2 L 135.1,472.6 L 132.9,460.1 L 131.3,453.8 L 123.0,440.1 L 119.3,420.7 L 116.6,407.9 L 116.6,395.8 L 114.8,386.4 L 101.6,392.4 L 95.2,391.2 L 83.3,379.1 L 87.7,375.5 L 85.0,371.6 L 74.3,363.1 L 67.7,360.6 L 65.0,353.4 L 57.9,345.7 L 41.2,347.6 L 26.4,347.8 L 13.6,349.2 L -3.5,346.2 L -13.4,343.9 L -23.7,342.6 L -27.5,330.3 L -31.9,328.6 L -38.9,330.4 L -48.0,335.2 L -59.2,331.9 L -68.3,324.2 L -77.1,321.3 L -83.2,311.9 L -89.9,298.5 L -94.8,300.1 L -100.5,296.8 L -103.9,300.7 L -109.3,300.2 L -107.4,304.7 L -108.2,306.9 L -105.3,314.5 L -101.7,323.1 L -97.3,325.4 L -95.7,328.9 L -89.5,333.1 L -89.0,337.2 L -89.9,340.6 L -88.7,343.9 L -86.1,346.7 L -84.9,350.0 L -83.5,352.5 L -84.1,345.2 L -81.7,339.9 L -79.2,338.9 L -76.5,342.0 L -76.3,347.8 L -78.3,353.7 L -76.5,357.5 L -74.9,357.1 L -74.6,359.8 L -67.5,358.2 L -60.0,358.5 L -54.5,358.8 L -48.2,352.0 L -41.5,345.6 L -35.7,339.4 L -33.1,336.0 L -31.9,336.9 L -32.8,341.0 L -34.0,342.9 L -32.8,350.8 L -28.7,357.6 L -23.6,361.2 L -16.9,362.5 L -11.6,364.3 L -7.5,370.1 L -5.0,373.4 L -1.7,374.7 L -1.8,376.9 L -5.1,382.9 L -6.5,385.7 L -10.4,388.9 L -13.7,395.7 L -17.9,395.2 L -19.8,397.6 L -21.2,402.6 L -20.1,409.3 L -21.0,410.6 L -25.1,410.5 L -30.8,414.3 L -31.7,419.1 L -33.8,421.2 L -39.4,421.2 L -43.0,423.7 L -43.0,427.7 L -47.4,430.5 L -52.4,429.5 L -58.5,432.9 L -62.6,433.5 L -69.2,436.2 L -71.0,440.6 L -71.2,444.0 L -80.3,448.2 L -94.8,452.9 L -102.9,460.0 L -106.9,460.5 L -109.6,459.9 L -115.0,464.1 L -120.8,466.0 L -128.4,466.5 L -130.7,467.1 L -132.7,469.7 L -135.1,470.5 L -136.5,473.0 L -141.0,472.8 L -143.9,474.1 L -150.2,473.6 L -152.5,467.8 L -152.3,462.3 L -153.7,459.4 L -155.5,452.0 L -158.1,447.9 L -156.3,447.4 L -157.2,442.8 L -156.1,440.9 L -156.6,436.5 L -157.7,432.3 L -160.5,429.2 L -161.2,425.3 L -165.9,421.7 L -170.7,413.3 L -173.3,405.1 L -179.6,398.3 L -183.6,396.6 L -189.6,387.1 L -190.7,380.1 L -190.3,374.2 L -195.5,363.1 L -199.8,359.2 L -204.7,357.1 L -207.7,351.4 L -207.2,349.2 L -209.7,344.0 L -212.4,341.7 L -215.9,334.3 L -221.5,326.2 L -226.1,319.4 L -230.6,319.4 L -229.2,313.9 L -228.8,310.4 L -227.7,306.4 L -228.0,305.0 L -230.5,309.0 L -232.5,316.6 L -235.0,321.8 L -237.1,323.5 L -240.1,320.3 L -244.2,315.8 L -250.7,301.5 L -251.6,302.4 L -247.9,312.9 L -242.3,323.0 L -235.4,338.6 L -232.1,344.0 L -229.1,349.7 L -221.0,360.7 L -222.8,362.5 L -222.5,369.0 L -211.9,378.0 L -210.3,380.0 L -207.4,389.8 L -209.4,391.6 L -208.0,401.9 L -204.7,413.9 L -201.2,416.3 L -196.3,420.0 L -191.0,431.6 L -188.5,440.8 L -183.5,445.6 L -171.1,455.1 L -166.0,460.8 L -161.1,466.6 L -158.3,470.0 L -153.8,473.0 L -151.7,476.1 L -151.9,480.3 L -157.1,482.6 L -153.2,485.4 L -150.3,487.2 L -148.5,491.4 L -144.4,495.5 L -139.9,495.6 L -131.3,493.0 L -121.4,491.8 L -113.4,488.7 L -108.9,488.1 L -105.6,486.2 L -100.5,485.9 L -97.6,485.7 L -93.4,484.2 L -88.6,483.2 L -84.3,479.8 L -80.8,479.8 L -80.6,482.5 L -81.4,488.3 L -81.4,493.6 L -83.3,497.2 L -85.9,508.0 L -90.3,519.2 L -95.9,532.0 L -103.7,546.6 L -111.4,557.8 L -122.1,571.4 L -131.2,579.5 L -144.8,589.5 L -153.3,597.1 L -163.3,609.2 L -165.4,614.5 L -167.4,616.8 L -173.8,620.8 L -176.0,625.0 L -179.4,625.7 L -180.7,632.8 L -183.6,636.8 L -185.4,643.5 L -189.1,646.8 L -193.3,659.1 L -192.7,664.8 L -186.9,668.4 L -186.6,671.0 L -189.1,677.0 L -188.6,680.1 L -189.2,684.9 L -186.0,691.1 L -182.3,701.0 L -178.9,703.2 L -177.5,707.7 L -177.8,717.6 L -176.7,726.4 L -176.4,742.0 L -174.8,746.9 L -177.5,754.1 L -181.0,761.0 L -186.8,767.2 L -195.1,771.0 L -205.4,775.9 L -215.6,786.6 L -219.1,788.4 L -225.5,795.5 L -229.2,797.8 L -230.0,805.0 L -225.7,812.5 L -223.9,818.4 L -223.8,821.4 L -222.2,820.9 L -222.4,830.7 L -223.9,835.4 L -221.8,837.1 L -223.1,841.2 L -226.9,844.8 L -234.4,848.2 L -245.3,853.6 L -249.3,857.3 L -248.5,861.5 L -246.2,862.2 L -247.0,867.4 L -249.3,874.7 L -250.3,883.0 L -252.7,887.5 L -258.9,892.6 L -260.7,894.0 L -264.5,899.1 L -267.1,904.2 L -272.2,911.4 L -282.5,921.7 L -288.9,927.7 L -295.8,932.3 L -305.3,936.1 L -309.9,936.7 L -311.1,939.4 L -316.6,938.0 L -321.1,939.9 L -331.0,937.9 L -336.5,939.2 L -340.2,938.6 L -349.6,942.6 L -357.4,944.2 L -363.0,948.0 L -367.1,948.2 L -371.0,944.6 L -374.0,944.4 L -378.0,940.0 L -378.4,941.4 L -379.6,938.7 L -379.5,932.8 L -382.5,926.1 L -379.6,924.3 L -379.8,916.6 L -385.8,907.3 L -390.3,898.8 L -390.3,898.8 L -396.9,885.8 L -403.6,878.2 L -407.2,870.9 L -409.2,861.2 L -411.4,853.9 L -414.5,838.5 L -414.7,826.6 L -415.8,821.1 L -419.4,817.0 L -424.1,808.7 L -428.8,796.7 L -430.8,790.5 L -438.2,780.7 L -438.8,773.0 L -439.6,766.7 L -438.4,757.9 L -435.2,748.8 L -434.8,744.5 L -431.8,735.5 L -429.6,731.4 L -424.4,724.8 L -421.5,720.4 L -420.6,713.0 L -421.0,707.3 L -423.8,703.7 L -426.2,697.7 L -428.4,691.7 L -427.9,689.6 L -425.1,685.6 L -427.9,676.0 L -429.7,669.3 L -434.3,662.9 L -433.4,661.0 L -434.7,657.9 L -437.1,650.4 L -444.6,639.8 L -453.9,629.7 L -460.0,621.4 L -465.5,611.1 L -465.2,607.8 L -463.2,604.6 L -461.0,597.3 L -459.2,589.9 L -460.9,588.4 L -457.7,577.2 L -456.4,569.3 L -460.0,562.7 L -464.1,561.0 L -466.0,556.5 L -468.3,555.0 L -468.2,552.3 L -477.6,555.9 L -481.1,555.4 L -484.6,557.6 L -491.8,557.4 L -496.7,551.1 L -499.7,543.9 L -506.1,537.3 L -513.0,537.4 L -521.0,537.4 L -528.5,538.6 L -535.8,540.7 L -550.1,546.6 L -555.1,550.0 L -563.3,552.9 L -571.4,550.1 L -575.6,550.2 L -581.9,548.2 L -587.7,548.3 L -598.5,550.1 L -604.8,552.9 L -613.8,556.6 L -615.6,556.4 L -617.9,556.4 L -627.3,551.7 L -635.6,544.1 L -643.3,538.6 L -649.4,532.1 L -651.9,531.4 L -658.4,527.4 L -663.2,522.0 L -664.8,518.4 L -665.9,511.0 L -669.9,505.1 L -673.4,501.1 L -675.7,499.8 L -678.0,497.9 L -679.0,493.4 L -680.4,491.2 L -683.0,489.6 L -687.9,485.4 L -691.7,484.8 L -693.8,481.9 L -693.7,480.4 L -696.5,478.3 L -697.1,476.2 L -698.6,468.5 L -697.4,464.0 L -701.1,456.3 L -705.7,452.7 L -701.7,450.8 L -697.3,443.8 L -695.1,438.6 L -695.9,433.3 L -693.4,428.3 L -692.2,418.9 L -693.2,409.0 L -694.3,404.1 L -693.4,399.1 L -695.8,394.3 L -700.6,390.0 L -700.2,385.8 L -699.8,381.1 L -696.3,378.4 L -693.3,373.2 L -693.9,369.8 L -690.8,362.8 L -685.7,356.4 L -682.6,354.8 L -680.2,349.0 L -680.0,343.6 L -676.7,337.5 L -670.7,333.8 L -664.9,323.6 L -660.2,319.6 L -651.7,318.5 L -644.6,311.7 L -640.0,309.0 L -632.4,300.7 L -634.7,288.2 L -631.2,279.6 L -630.0,274.4 L -624.2,267.6 L -615.0,263.0 L -608.3,258.9 L -602.2,248.5 L -599.4,242.4 L -592.7,242.4 L -587.2,246.7 L -578.5,246.0 L -569.1,248.2 L -565.2,248.3 L -556.4,242.9 L -546.6,241.1 L -540.9,237.0 L -532.1,233.9 L -516.7,232.2 L -501.7,231.3 L -497.1,232.8 L -488.5,228.9 L -478.8,228.8 L -475.1,231.1 L -468.9,230.5 L -459.0,226.5 L -452.6,227.7 L -452.9,232.8 L -445.2,229.1 L -444.5,231.0 L -449.1,235.9 L -449.2,240.5 L -446.0,243.0 L -447.2,251.7 L -453.2,256.7 L -451.5,262.1 L -446.8,262.3 L -444.5,267.1 L -441.0,268.6 L -430.3,272.1 L -426.5,271.2 L -418.9,272.9 L -406.9,277.3 L -402.6,286.2 L -394.4,288.2 L -381.6,292.4 L -371.9,297.3 L -367.5,294.7 L -363.2,290.1 L -365.3,282.5 L -362.4,277.6 L -355.9,272.9 L -349.6,271.6 L -337.3,273.6 L -334.2,278.1 L -330.8,278.1 L -327.9,279.8 L -318.9,281.0 L -316.7,284.3 L -304.6,284.1 L -295.8,286.8 L -286.8,289.7 L -282.6,291.3 L -275.6,288.1 L -271.9,285.3 L -263.8,284.4 L -257.4,285.7 L -254.9,290.7 L -252.8,287.4 L -245.5,289.8 L -238.4,290.3 L -233.9,287.8 L -231.3,284.5 L -231.9,283.9 L -229.5,279.3 L -227.7,271.7 L -226.4,269.2 L -226.1,269.1 L -222.9,260.9 L -218.4,253.9 L -218.2,253.6 L -219.0,245.9 L -216.8,241.8 L -220.2,237.2 L -216.7,233.5 L -222.3,234.3 L -229.9,232.0 L -236.1,237.8 L -249.9,238.9 L -257.3,233.6 L -267.1,233.2 L -269.2,237.4 L -275.5,238.6 L -284.2,233.2 L -294.2,233.4 L -299.6,223.5 L -306.2,217.9 L -301.8,210.1 L -307.5,205.4 L -297.5,195.8 L -283.5,195.4 L -279.6,187.8 L -262.3,189.1 L -251.4,182.6 L -240.8,179.8 L -225.7,179.6 L -209.9,186.6 L -196.8,190.5 L -186.2,189.0 L -178.4,189.9 L -167.7,184.6 L -166.3,180.4 L -168.6,173.5 L -173.9,169.9 L -178.9,168.7 L -182.2,165.6 L -193.8,157.2 L -204.2,153.4 L -212.0,147.6 L -205.4,146.0 L -197.9,137.6 L -203.0,133.6 L -189.6,129.6 L -189.8,127.4 L -198.0,129.0 L -205.2,129.8 L -211.3,133.0 L -219.8,133.5 L -227.6,137.3 L -227.1,143.5 L -222.6,145.9 L -213.4,145.3 L -215.1,148.9 L -225.1,150.6 L -237.4,156.4 L -242.5,154.4 L -240.5,149.7 L -250.4,146.7 L -248.8,144.8 L -240.1,141.5 L -242.7,139.2 L -256.9,136.7 L -257.5,132.9 L -265.9,134.2 L -269.3,139.7 L -276.3,147.1 L -276.1,149.6 L -280.5,151.8 L -283.3,150.9 L -285.8,162.9 L -290.6,167.1 L -293.9,174.2 L -290.9,179.9 L -289.9,183.8 L -281.9,187.0 L -283.6,189.5 L -294.4,190.0 L -298.2,193.1 L -305.8,198.5 L -308.7,193.8 L -308.6,191.8 L -314.1,191.5 L -318.9,190.5 L -329.9,193.1 L -323.6,198.7 L -328.2,200.4 L -333.2,200.4 L -338.1,195.2 L -339.8,197.4 L -337.7,203.4 L -333.2,208.1 L -336.6,210.3 L -331.5,214.9 L -327.0,217.8 L -326.9,223.4 L -335.3,220.8 L -332.6,225.9 L -338.4,226.9 L -335.0,235.8 L -341.0,235.9 L -348.5,231.5 L -351.9,223.5 L -353.5,216.9 L -357.0,212.3 L -361.7,206.6 L -362.3,203.7 L -363.8,203.0 L -364.0,200.8 L -369.0,197.5 L -369.8,192.7 L -369.1,185.9 L -367.8,182.8 L -369.3,181.2 L -371.3,180.4 L -373.8,177.2 L -377.7,175.2 L -386.3,171.5 L -391.5,167.9 L -399.9,164.9 L -407.5,157.6 L -405.7,156.8 L -409.8,152.6 L -410.0,149.2 L -415.8,147.7 L -418.6,152.0 L -421.3,148.6 L -421.1,145.2 L -420.8,145.0 L -418.7,144.1 L -426.0,142.6 L -433.4,146.2 L -432.9,151.1 L -434.0,154.0 L -431.0,159.1 L -422.5,164.1 L -417.9,172.4 L -407.8,180.4 L -400.7,180.4 L -398.5,182.6 L -401.0,184.6 L -392.9,188.2 L -386.2,191.2 L -378.4,196.4 L -377.5,198.3 L -379.1,201.9 L -384.2,197.2 L -392.1,195.6 L -395.9,202.0 L -389.3,205.8 L -390.4,211.0 L -394.2,211.6 L -399.1,220.1 L -402.9,220.9 L -402.8,217.9 L -401.0,212.5 L -399.0,210.4 L -402.6,204.6 L -405.3,199.5 L -409.1,198.3 L -411.8,194.0 L -417.6,192.1 L -421.6,188.1 L -428.3,187.5 L -435.4,183.0 L -443.7,176.4 L -449.9,170.7 L -452.7,160.8 L -457.2,159.6 L -464.6,156.3 L -468.8,157.7 L -474.1,162.3 L -477.9,163.1 L -486.1,168.7 L -504.0,166.0 L -517.3,169.2 L -518.3,175.3 L -517.8,181.1 L -526.4,187.7 L -538.1,189.9 L -538.9,193.2 L -544.5,198.8 L -548.0,206.9 L -544.4,212.6 L -549.7,217.1 L -551.7,223.6 L -558.5,225.6 L -565.0,233.3 L -576.5,233.4 L -585.2,233.2 L -590.9,236.8 L -594.3,240.5 L -598.8,239.7 L -602.2,236.3 L -604.7,230.6 L -613.2,229.0 L -616.9,231.6 L -621.7,230.2 L -626.4,231.3 L -625.0,223.5 L -625.8,217.3 L -629.9,216.4 L -632.1,212.6 L -631.3,206.1 L -627.7,202.4 L -627.1,198.4 L -625.2,192.4 L -625.4,188.2 L -627.2,184.6 L -627.6,181.2 L -627.1,174.1 L -630.8,169.7 L -618.0,162.5 L -606.9,164.3 L -594.7,164.3 L -585.0,166.0 L -577.4,165.4 L -562.7,165.8 L -558.0,159.8 L -556.3,139.9 L -565.7,129.4 L -572.4,124.3 L -586.3,120.4 L -587.2,113.2 L -575.4,111.0 L -560.2,113.6 L -563.0,102.2 L -554.4,106.5 L -533.3,98.7 L -530.6,90.5 L -522.6,88.5 L -515.3,86.5 L -510.6,83.8 L -502.7,69.1 L -490.2,64.9 L -482.7,65.2 L -480.9,63.1 L -473.3,62.5 L -471.6,64.7 L -465.4,59.8 L -467.5,56.0 L -467.9,50.4 L -471.6,44.8 L -471.9,34.6 L -470.4,31.9 L -467.8,28.9 L -459.8,28.3 L -456.6,25.5 L -449.3,22.7 L -449.6,27.8 L -452.3,31.1 L -451.2,33.9 L -446.3,35.4 L -448.5,39.2 L -451.2,38.1 L -457.7,45.3 L -455.3,50.2 L -455.1,54.0 L -445.9,56.4 L -446.0,59.9 L -436.8,58.0 L -431.7,55.3 L -421.4,59.2 L -417.1,62.4 L -410.9,59.5 L -396.7,54.9 L -385.2,51.5 L -376.2,53.2 L -375.5,55.6 L -366.7,55.7 L -364.7,51.3 L -352.1,48.1 L -354.0,39.7 L -353.7,32.2 L -349.3,25.9 L -340.7,22.5 L -333.5,29.9 L -326.2,29.7 L -324.4,22.1 L -323.4,16.2 L -326.7,17.4 L -332.5,13.9 L -333.3,8.1 L -321.8,5.3 L -310.3,3.9 L -300.5,5.5 L -291.1,5.2 L -280.7,-0.3 L -290.3,-5.0 L -306.8,-4.2 L -322.8,-0.6 L -337.5,1.5 L -342.8,-3.9 L -351.6,-7.2 L -349.6,-17.1 L -354.0,-26.1 L -349.7,-31.9 L -341.4,-38.2 L -320.6,-49.0 L -314.6,-51.1 L -315.5,-55.3 L -328.1,-60.1 L -343.8,-57.2 L -352.6,-50.3 L -351.2,-44.1 L -365.6,-36.1 L -383.2,-27.5 L -389.8,-13.4 L -383.4,-6.4 L -374.7,-0.8 L -383.0,10.5 L -392.5,12.8 L -395.9,29.6 L -401.1,39.0 L -412.1,38.0 L -417.3,45.9 L -427.8,46.4 L -430.7,36.9 L -438.3,25.6 L -445.2,11.4 L -451.3,5.3 L -469.3,16.9 L -481.4,19.2 L -493.9,14.1 L -497.2,3.4 L -500.1,-19.7 L -491.7,-26.1 L -467.7,-34.5 L -449.7,-44.9 L -433.1,-58.8 L -411.3,-78.1 L -396.0,-85.6 L -371.1,-98.2 L -351.1,-102.6 L -336.1,-102.0 L -322.3,-110.3 L -305.7,-109.9 L -289.4,-111.9 L -261.0,-104.5 L -272.7,-101.9 L -262.7,-95.6 L -253.3,-99.1 L -238.4,-93.0 L -213.5,-90.6 L -179.2,-79.3 L -172.2,-74.6 L -171.6,-67.9 L -181.7,-62.7 L -196.5,-60.0 L -237.1,-67.6 L -243.8,-66.3 L -229.0,-59.0 L -227.8,-44.1 L -216.1,-41.1 L -209.0,-38.5 L -207.8,-43.3 L -213.5,-47.8 L -207.5,-51.4 L -185.5,-45.2 L -177.9,-47.6 L -184.0,-55.0 L -162.8,-64.8 L -154.4,-64.2 L -145.9,-60.7 L -140.6,-67.6 L -148.2,-73.5 L -143.7,-79.5 L -150.4,-85.7 L -125.0,-82.5 L -119.8,-76.9 L -131.3,-75.7 L -131.3,-70.1 L -124.1,-66.7 L -110.1,-68.8 L -107.8,-75.2 L -88.8,-80.0 L -57.1,-88.6 L -50.3,-88.1 L -59.2,-82.0 L -47.9,-81.0 L -41.4,-84.4 L -24.4,-84.7 L -10.9,-88.8 L -0.5,-82.8 L 9.8,-89.4 L 0.3,-95.2 L 5.0,-98.5 L 31.9,-95.5 L 44.4,-92.3 L 77.4,-80.9 L 83.5,-86.2 L 74.2,-91.4 L 74.0,-93.6 L 63.0,-94.5 L 66.0,-99.3 L 61.1,-107.1 L 60.9,-110.3 L 77.6,-119.3 L 83.6,-128.4 L 90.4,-130.4 L 114.4,-127.8 L 116.3,-122.2 L 107.7,-114.1 L 113.4,-110.9 L 116.3,-103.9 L 114.2,-90.2 L 124.3,-84.1 L 120.4,-77.4 L 102.5,-63.2 L 112.9,-61.7 L 116.6,-65.3 L 126.6,-67.9 L 129.0,-72.8 L 136.8,-77.6 L 131.5,-83.3 L 135.8,-89.9 L 125.8,-90.7 L 123.7,-96.3 L 130.9,-106.3 L 119.1,-114.5 L 135.4,-121.2 L 133.3,-128.3 L 137.8,-128.6 L 142.6,-123.0 L 139.0,-113.4 L 148.7,-111.5 L 144.6,-118.7 L 159.8,-122.7 L 178.7,-123.2 L 195.5,-117.5 L 187.4,-125.8 L 186.5,-136.5 L 202.3,-138.5 L 224.1,-138.1 L 243.8,-139.4 L 236.5,-144.6 L 247.0,-151.2 L 257.4,-151.4 L 275.1,-156.4 L 299.1,-157.7 L 302.1,-160.5 L 326.0,-161.4 L 333.4,-159.2 L 353.8,-164.5 L 370.5,-164.3 L 373.0,-168.6 L 381.7,-172.9 L 403.2,-177.0 L 418.8,-173.7 L 406.4,-171.3 L 427.0,-169.7 Z M -99.0,187.2 L -94.4,194.3 L -90.1,194.7 L -87.3,197.4 L -94.8,198.2 L -96.4,206.0 L -98.0,209.5 L -101.3,211.8 L -101.1,216.8 L -98.2,224.2 L -89.6,226.3 L -83.3,231.3 L -70.3,233.0 L -56.1,230.3 L -55.3,228.0 L -57.0,220.9 L -55.6,210.5 L -62.7,207.1 L -60.4,200.2 L -66.4,199.7 L -64.4,191.2 L -55.8,193.7 L -47.8,190.5 L -54.5,184.5 L -57.1,178.8 L -64.4,181.3 L -65.3,188.6 L -68.2,182.2 L -68.7,179.7 L -66.4,175.6 L -68.2,172.1 L -78.7,168.7 L -82.8,159.7 L -87.8,157.2 L -88.1,153.9 L -79.3,154.9 L -78.9,147.5 L -71.2,145.9 L -63.3,147.4 L -61.6,137.7 L -63.2,131.5 L -72.3,132.0 L -80.1,129.5 L -90.6,133.9 L -99.1,136.0 L -103.2,141.9 L -112.0,143.6 L -121.1,153.9 L -112.8,163.4 L -113.7,170.1 L -103.8,181.9 L -99.0,187.2 Z"/>
  </g>
  <g fill="none" stroke="#4a5568" stroke-width="1.5">
    <path d="M 248.7,107.9 L 241.8,114.5 L 234.3,115.4 L 233.8,125.5 L 228.8,130.0 L 210.7,126.7 L 204.2,144.6 L 199.5,146.8 L 181.5,150.8 L 189.7,168.2 L 183.5,170.8 L 184.2,176.5 L 178.6,175.0 L 174.0,171.4 L 160.5,170.4 L 145.5,170.1 L 142.2,171.2 L 129.2,167.0 L 124.0,169.1 L 122.6,175.0 L 107.7,171.5 L 101.7,173.0 L 99.7,177.3 L 94.4,179.2 L 82.5,186.2 L 78.5,193.3 L 75.1,193.4 L 72.6,188.6 L 61.0,188.3 L 59.2,180.1 L 54.8,180.1 L 55.4,170.0 L 44.6,162.7 L 29.0,163.5 L 18.3,165.0 L 9.6,155.9 L 2.2,152.2 L -11.9,145.0 L -13.6,144.1 L -37.0,150.0 L -36.7,186.9 L -41.3,187.4 L -47.7,179.6 L -53.8,176.8 L -64.1,178.8 L -68.2,182.2 L -68.7,179.7 L -66.4,175.6 L -68.2,172.1 L -78.7,168.7 L -82.8,159.7 L -87.8,157.2 L -88.1,153.9 L -79.3,154.9 L -78.9,147.5 L -71.2,145.9 L -63.3,147.4 L -61.6,137.7 L -63.2,131.5 L -72.3,132.0 L -80.1,129.5 L -90.6,133.9 L -99.1,136.0 L -103.7,134.4 L -102.8,129.2 L -108.6,122.6 L -115.3,122.8 L -123.0,116.1 L -117.8,108.5 L -120.4,106.4 L -113.2,95.5 L -103.8,101.3 L -102.7,93.9 L -83.9,83.1 L -69.7,82.8 L -49.7,89.7 L -38.9,93.8 L -29.3,89.6 L -14.9,89.4 L -3.3,94.5 L -0.6,91.6 L 12.2,92.0 L 14.4,87.3 L -0.3,80.4 L 8.4,75.5 L 6.7,72.8 L 15.5,70.2 L 8.9,63.4 L 13.1,59.9 L 47.1,56.5 L 51.5,54.0 L 74.3,50.3 L 82.4,46.1 L 98.8,48.3 L 101.6,58.7 L 111.1,56.2 L 122.8,59.6 L 122.1,65.1 L 130.8,64.5 L 153.6,55.1 L 150.2,58.2 L 161.8,66.0 L 182.1,91.4 L 187.0,86.1 L 199.5,91.9 L 212.6,89.3 L 217.6,91.1 L 222.0,96.9 L 228.3,98.8 L 232.2,103.1 L 243.9,101.7 L 248.7,107.9 Z"/>
    <path d="M -36.7,186.9 L -37.0,150.0 L -13.6,144.1 L -11.9,145.0 L 2.2,152.2 L 9.6,155.9 L 18.3,165.0 L 29.0,163.5 L 44.6,162.7 L 55.4,170.0 L 54.8,180.1 L 59.2,180.1 L 61.0,188.3 L 72.6,188.6 L 75.1,193.4 L 78.5,193.3 L 82.5,186.2 L 94.4,179.2 L 99.7,177.3 L 102.4,178.3 L 94.7,184.8 L 101.4,188.6 L 107.9,186.1 L 118.7,191.3 L 107.0,198.5 L 100.1,197.6 L 96.4,197.8 L 95.1,195.0 L 97.0,190.4 L 84.8,192.7 L 81.9,199.1 L 77.6,204.7 L 70.0,204.2 L 67.7,208.6 L 74.3,211.0 L 76.3,218.4 L 71.2,228.6 L 64.3,226.4 L 59.3,226.4 L 59.5,220.3 L 47.4,216.0 L 37.9,211.1 L 32.0,206.4 L 21.6,199.5 L 17.1,189.2 L 14.1,187.3 L 4.2,187.8 L 0.8,185.7 L -0.2,177.8 L -12.5,172.5 L -20.1,178.3 L -27.9,181.7 L -26.4,186.8 L -36.7,186.9 Z"/>
    <path d="M 736.4,626.0 L 736.5,658.6 L 736.7,691.2 L 728.6,683.0 L 719.3,681.0 L 717.1,683.8 L 705.6,684.1 L 709.4,676.0 L 715.2,673.2 L 712.8,662.3 L 708.4,653.9 L 690.8,645.5 L 683.3,644.6 L 669.7,635.4 L 667.0,640.2 L 663.5,641.1 L 661.4,637.5 L 661.4,633.1 L 654.5,628.2 L 664.2,624.6 L 670.7,624.8 L 670.0,622.1 L 656.7,622.1 L 653.1,616.2 L 644.9,614.3 L 641.1,609.4 L 653.3,607.0 L 658.0,603.7 L 672.6,607.8 L 674.0,611.5 L 676.6,627.7 L 686.0,633.7 L 693.6,623.1 L 704.0,617.0 L 712.1,617.0 L 719.9,620.5 L 726.6,624.1 L 736.4,626.0 Z M 590.6,688.9 L 591.5,690.9 L 591.7,693.9 L 585.8,701.4 L 578.0,703.6 L 576.9,702.4 L 577.7,699.0 L 581.6,692.9 L 590.6,688.9 Z M 674.6,669.0 L 673.8,661.4 L 675.4,657.8 L 677.3,654.5 L 679.3,657.4 L 679.3,662.1 L 674.6,669.0 Z M 526.2,558.6 L 521.0,567.7 L 527.7,577.1 L 526.1,581.7 L 536.3,591.0 L 525.6,592.2 L 522.5,599.0 L 522.9,608.0 L 514.2,614.9 L 513.9,624.8 L 510.4,640.1 L 509.1,636.6 L 498.8,641.1 L 495.2,635.0 L 488.7,634.4 L 484.2,631.2 L 473.3,634.8 L 470.0,629.9 L 464.1,630.5 L 456.6,629.3 L 455.2,615.9 L 450.7,613.1 L 446.3,604.6 L 445.0,595.8 L 446.1,586.6 L 451.5,579.9 L 453.0,586.6 L 459.2,592.3 L 465.1,590.2 L 470.9,591.0 L 476.2,585.9 L 480.5,585.0 L 489.1,587.8 L 496.6,585.7 L 501.2,571.8 L 504.7,568.3 L 507.9,556.9 L 518.3,556.9 L 526.2,558.6 Z M 630.6,628.0 L 640.6,630.9 L 644.0,638.6 L 636.3,634.5 L 628.7,633.6 L 623.6,634.3 L 617.3,633.9 L 619.4,628.4 L 630.6,628.0 Z M 608.0,637.9 L 601.7,636.1 L 599.9,631.8 L 609.1,631.3 L 611.4,634.6 L 608.0,637.9 Z M 617.6,578.3 L 618.2,583.7 L 623.6,584.6 L 624.4,588.7 L 624.0,597.4 L 619.3,596.4 L 617.9,602.5 L 621.6,607.8 L 619.1,609.0 L 615.4,602.7 L 612.7,589.9 L 614.6,581.9 L 617.6,578.3 Z M 572.1,591.2 L 582.5,590.8 L 591.5,583.6 L 593.1,585.8 L 585.8,595.7 L 579.0,597.6 L 570.2,595.7 L 555.1,596.2 L 547.1,597.6 L 545.8,605.2 L 554.0,614.1 L 558.9,609.6 L 575.8,606.2 L 575.1,610.8 L 571.1,609.3 L 567.2,615.2 L 559.2,619.0 L 567.8,631.9 L 566.1,635.3 L 574.3,646.8 L 574.2,653.4 L 569.4,656.3 L 565.8,652.8 L 570.2,644.6 L 561.3,648.5 L 559.0,645.7 L 560.2,641.9 L 553.6,636.0 L 554.3,626.3 L 548.2,629.3 L 549.0,641.0 L 549.4,655.3 L 543.6,656.7 L 539.7,653.8 L 542.3,644.6 L 540.9,634.9 L 537.1,634.9 L 534.3,628.0 L 538.0,621.5 L 539.3,613.5 L 543.9,598.5 L 545.8,594.3 L 553.5,586.9 L 560.6,589.9 L 572.1,591.2 Z M 548.1,702.6 L 536.1,695.6 L 544.5,693.6 L 549.3,696.7 L 552.5,699.7 L 552.0,702.4 L 548.1,702.6 Z M 557.7,685.4 L 563.7,684.6 L 571.9,680.9 L 570.5,686.5 L 556.9,689.3 L 544.8,688.1 L 544.7,684.4 L 552.0,682.4 L 557.7,685.4 Z M 529.6,683.6 L 535.3,682.8 L 537.5,687.1 L 527.0,689.1 L 520.7,690.4 L 515.8,690.3 L 518.9,684.6 L 523.9,684.5 L 526.4,681.0 L 529.6,683.6 Z M 440.8,664.2 L 442.0,667.8 L 459.4,668.8 L 461.5,664.7 L 478.3,669.5 L 481.6,675.9 L 495.3,677.8 L 506.4,683.7 L 496.0,687.5 L 486.0,683.5 L 477.8,683.8 L 468.4,683.0 L 459.9,681.2 L 449.3,677.4 L 442.7,676.4 L 438.9,677.7 L 422.3,673.5 L 420.7,669.2 L 412.4,668.5 L 418.7,659.0 L 429.7,659.5 L 437.0,663.5 L 440.8,664.2 Z M 403.4,610.8 L 404.9,617.8 L 408.1,623.4 L 414.7,624.3 L 419.2,630.6 L 416.9,643.1 L 416.5,658.5 L 406.5,658.7 L 398.8,650.4 L 387.1,642.2 L 383.2,636.1 L 376.4,628.0 L 371.8,620.5 L 364.9,606.5 L 356.9,598.2 L 354.3,589.6 L 350.9,581.8 L 342.7,575.5 L 338.0,566.9 L 331.1,561.3 L 321.6,550.3 L 320.8,545.2 L 326.7,545.6 L 340.8,547.5 L 348.8,557.3 L 355.8,564.1 L 360.9,568.3 L 369.5,579.0 L 378.7,579.2 L 386.3,586.0 L 391.6,594.4 L 398.5,599.0 L 394.9,607.1 L 400.1,610.6 L 403.4,610.8 Z"/>
    <path d="M 1079.3,-111.0 L 1090.9,-115.2 L 1090.9,-108.3 L 1080.9,-107.8 L 1079.3,-111.0 Z M -99.1,136.0 L -103.2,141.9 L -112.0,143.6 L -121.1,153.9 L -112.8,163.4 L -113.7,170.1 L -103.8,181.9 L -103.8,181.9 L -109.2,185.9 L -110.8,188.5 L -114.8,187.8 L -121.0,181.7 L -123.6,181.4 L -129.3,179.1 L -132.1,175.0 L -140.6,172.9 L -146.1,174.5 L -147.7,172.6 L -160.1,167.8 L -173.4,166.2 L -181.1,164.5 L -182.2,165.7 L -193.8,157.2 L -204.2,153.4 L -212.0,147.6 L -205.4,146.0 L -197.9,137.6 L -203.0,133.6 L -189.6,129.6 L -189.8,127.4 L -198.0,129.0 L -197.7,124.5 L -193.0,121.7 L -184.2,121.0 L -182.8,117.7 L -184.8,112.2 L -181.1,106.9 L -181.2,104.0 L -194.6,100.7 L -199.9,100.8 L -205.5,96.2 L -212.5,97.7 L -224.0,94.2 L -223.8,92.3 L -227.1,87.9 L -234.3,87.4 L -235.1,84.3 L -232.8,82.3 L -238.6,76.6 L -248.0,77.6 L -250.8,77.1 L -253.1,79.4 L -256.5,79.0 L -256.5,79.0 L -258.7,72.6 L -260.9,69.3 L -259.1,68.3 L -251.8,68.7 L -248.2,66.5 L -250.9,63.8 L -257.0,62.1 L -256.4,60.3 L -260.1,58.4 L -265.8,51.9 L -263.9,49.2 L -264.8,44.5 L -273.7,42.1 L -278.4,43.3 L -279.7,40.8 L -289.3,38.3 L -292.2,32.4 L -293.0,27.6 L -297.4,25.3 L -293.5,22.1 L -296.2,12.8 L -289.7,7.0 L -291.1,5.2 L -291.1,5.2 L -280.7,-0.3 L -290.3,-5.0 L -290.3,-5.0 L -270.8,-17.8 L -262.4,-23.6 L -258.9,-28.7 L -272.4,-35.5 L -268.7,-42.0 L -276.9,-49.5 L -270.7,-58.1 L -281.3,-69.4 L -272.9,-77.0 L -286.9,-83.6 L -285.5,-90.6 L -278.2,-91.6 L -262.7,-95.6 L -262.7,-95.6 L -253.3,-99.1 L -238.4,-93.0 L -213.5,-90.6 L -179.2,-79.3 L -172.2,-74.6 L -171.6,-67.9 L -181.7,-62.7 L -196.5,-60.0 L -237.1,-67.6 L -243.8,-66.3 L -229.0,-59.0 L -228.4,-54.4 L -227.8,-44.1 L -216.1,-41.1 L -209.0,-38.5 L -207.8,-43.3 L -213.3,-47.6 L -207.5,-51.4 L -185.5,-45.2 L -177.9,-47.6 L -184.0,-55.0 L -162.8,-64.8 L -154.4,-64.2 L -145.9,-60.7 L -140.6,-67.6 L -148.2,-73.5 L -143.7,-79.5 L -150.4,-85.7 L -125.0,-82.5 L -119.8,-76.9 L -131.3,-75.7 L -131.3,-70.1 L -124.1,-66.7 L -110.1,-68.8 L -107.8,-75.2 L -88.8,-80.0 L -57.1,-88.6 L -50.3,-88.1 L -59.2,-82.0 L -47.9,-81.0 L -41.4,-84.4 L -24.4,-84.7 L -10.9,-88.8 L -0.5,-82.8 L 9.8,-89.4 L 0.3,-95.2 L 5.0,-98.5 L 31.9,-95.5 L 44.4,-92.3 L 77.4,-80.9 L 83.5,-86.2 L 74.2,-91.4 L 74.0,-93.6 L 63.0,-94.5 L 66.0,-99.3 L 61.1,-107.1 L 60.9,-110.3 L 77.6,-119.3 L 83.6,-128.4 L 90.4,-130.4 L 114.4,-127.8 L 116.3,-122.2 L 107.7,-114.1 L 113.4,-110.9 L 116.3,-103.9 L 114.2,-90.2 L 124.3,-84.1 L 120.4,-77.4 L 102.5,-63.2 L 112.9,-61.7 L 116.6,-65.3 L 126.6,-67.9 L 129.0,-72.8 L 136.8,-77.6 L 131.5,-83.3 L 135.8,-89.9 L 125.8,-90.7 L 123.7,-96.3 L 130.9,-106.3 L 119.1,-114.5 L 135.4,-121.2 L 133.3,-128.3 L 137.8,-128.5 L 142.6,-123.0 L 139.0,-113.4 L 148.7,-111.5 L 144.6,-118.7 L 159.8,-122.7 L 178.7,-123.2 L 195.5,-117.5 L 187.4,-125.8 L 186.5,-136.5 L 202.3,-138.5 L 224.1,-138.1 L 243.8,-139.4 L 236.5,-144.6 L 247.0,-151.2 L 257.4,-151.4 L 275.1,-156.4 L 299.1,-157.7 L 302.1,-160.5 L 326.0,-161.4 L 333.4,-159.2 L 353.8,-164.5 L 370.5,-164.3 L 373.0,-168.6 L 381.7,-172.9 L 403.2,-177.0 L 418.8,-173.7 L 406.4,-171.3 L 427.0,-169.7 L 429.5,-164.8 L 437.8,-167.2 L 464.3,-167.1 L 484.8,-162.2 L 492.1,-158.5 L 489.9,-153.3 L 479.8,-150.3 L 455.9,-144.8 L 449.1,-141.8 L 460.4,-140.4 L 473.8,-137.9 L 482.0,-139.8 L 486.6,-133.4 L 490.6,-135.9 L 505.2,-137.5 L 534.3,-135.9 L 536.5,-131.2 L 574.6,-129.7 L 575.1,-137.4 L 594.4,-135.6 L 608.9,-135.7 L 623.6,-130.4 L 627.7,-124.0 L 622.4,-119.8 L 633.8,-111.9 L 648.1,-107.9 L 656.9,-118.4 L 671.4,-113.9 L 686.9,-116.6 L 704.5,-113.5 L 711.2,-116.3 L 726.1,-114.9 L 719.5,-124.2 L 731.5,-128.5 L 813.6,-122.0 L 821.4,-116.1 L 845.2,-108.4 L 881.9,-110.3 L 900.0,-108.7 L 907.5,-104.5 L 906.4,-97.2 L 917.6,-94.4 L 929.8,-96.4 L 945.9,-96.7 L 963.1,-94.7 L 980.3,-95.8 L 996.2,-86.9 L 1007.4,-90.1 L 1000.1,-96.5 L 1004.1,-101.0 L 1033.1,-98.2 L 1052.0,-98.8 L 1078.2,-94.0 L 1090.9,-89.6 L 1090.9,-49.8 L 1090.8,-49.7 L 1079.2,-45.3 L 1067.4,-46.1 L 1075.6,-40.8 L 1081.0,-32.5 L 1085.2,-29.8 L 1086.2,-25.7 L 1083.9,-23.0 L 1066.9,-25.2 L 1041.5,-17.7 L 1033.5,-16.5 L 1019.5,-9.5 L 1006.4,-3.4 L 1003.0,1.2 L 990.0,-5.7 L 966.3,2.1 L 962.2,-1.6 L 953.4,2.7 L 941.3,1.3 L 938.3,7.9 L 927.4,17.6 L 927.8,21.6 L 938.1,23.8 L 936.9,38.4 L 928.5,38.8 L 924.6,47.1 L 928.3,51.4 L 912.4,56.6 L 909.3,68.0 L 895.7,70.4 L 893.0,80.6 L 879.9,89.9 L 876.5,83.0 L 872.7,68.4 L 867.6,46.2 L 871.9,32.3 L 879.6,26.4 L 880.1,21.7 L 894.2,19.4 L 910.5,6.9 L 926.1,-3.4 L 942.5,-11.4 L 949.8,-25.5 L 938.7,-24.7 L 933.3,-16.4 L 910.2,-5.4 L 902.7,-17.7 L 879.3,-14.3 L 856.5,2.4 L 864.0,8.6 L 843.7,11.2 L 829.7,12.2 L 830.3,5.0 L 816.2,3.4 L 805.0,8.4 L 777.2,6.6 L 747.3,9.6 L 717.8,29.1 L 683.0,52.7 L 697.3,54.0 L 701.8,60.2 L 710.6,62.4 L 716.4,57.5 L 726.4,58.1 L 739.5,69.1 L 739.8,77.6 L 732.7,87.6 L 731.9,99.5 L 727.8,115.5 L 714.1,130.0 L 711.1,136.9 L 698.7,148.6 L 686.5,160.1 L 680.6,166.0 L 668.5,171.9 L 662.8,172.0 L 657.1,167.2 L 644.9,174.5 L 643.5,177.8 L 643.5,177.8 L 643.5,177.8 L 643.5,177.8 L 642.2,176.0 L 642.2,176.0 L 642.1,171.0 L 646.8,170.7 L 648.1,158.9 L 645.7,150.3 L 653.5,146.8 L 664.5,148.6 L 670.6,138.8 L 673.7,127.9 L 677.3,124.2 L 682.1,115.2 L 667.0,118.2 L 659.2,122.1 L 645.3,122.1 L 641.7,112.7 L 630.9,105.6 L 615.1,102.4 L 611.7,92.6 L 608.5,86.5 L 605.1,82.2 L 599.5,72.1 L 591.5,68.4 L 577.9,65.4 L 565.9,65.7 L 554.6,67.5 L 547.1,72.5 L 552.1,74.8 L 552.2,80.4 L 547.1,83.6 L 538.9,94.2 L 539.0,98.6 L 526.2,104.9 L 515.3,101.1 L 504.4,101.9 L 499.7,98.6 L 494.2,97.5 L 480.9,104.6 L 468.9,106.2 L 460.6,108.7 L 449.1,107.1 L 440.7,107.2 L 435.2,102.1 L 426.3,97.3 L 417.2,95.9 L 405.7,97.2 L 397.1,99.1 L 384.1,94.9 L 382.4,87.4 L 371.7,84.8 L 363.5,83.7 L 353.3,79.5 L 343.9,89.9 L 347.6,95.8 L 338.7,102.7 L 325.6,100.2 L 316.5,99.9 L 310.4,95.2 L 300.9,95.0 L 293.0,92.0 L 279.2,96.7 L 261.9,105.3 L 252.3,107.0 L 248.7,107.9 L 243.9,101.7 L 232.2,103.1 L 228.3,98.8 L 222.0,96.9 L 217.6,91.1 L 212.6,89.3 L 199.5,91.9 L 187.0,86.1 L 182.1,91.4 L 161.8,66.0 L 150.2,58.2 L 153.6,55.1 L 130.8,64.5 L 122.1,65.1 L 122.8,59.6 L 111.1,56.2 L 101.6,58.7 L 98.8,48.3 L 82.4,46.1 L 74.3,50.3 L 51.5,54.0 L 47.1,56.5 L 13.1,59.9 L 8.9,63.4 L 15.5,70.2 L 6.7,72.8 L 8.4,75.5 L -0.3,80.4 L 14.4,87.3 L 12.2,92.0 L -0.6,91.6 L -3.3,94.5 L -14.9,89.4 L -29.3,89.6 L -38.9,93.8 L -49.7,89.7 L -69.7,82.8 L -83.9,83.1 L -102.7,93.9 L -103.8,101.3 L -113.2,95.5 L -120.4,106.4 L -117.8,108.5 L -123.0,116.1 L -115.3,122.8 L -108.6,122.6 L -102.8,129.2 L -103.7,134.4 L -99.1,136.0 Z M 307.1,-210.2 L 326.7,-212.5 L 344.4,-207.5 L 365.3,-197.8 L 363.1,-188.8 L 343.3,-187.6 L 317.9,-190.4 L 302.8,-194.3 L 295.9,-201.4 L 283.5,-203.4 L 307.1,-210.2 Z M 389.4,-192.8 L 412.5,-187.1 L 409.8,-183.1 L 358.5,-179.2 L 375.1,-192.3 L 382.6,-193.5 L 389.4,-192.8 Z M 716.6,-161.4 L 740.7,-160.9 L 773.5,-155.6 L 766.4,-148.2 L 732.9,-148.5 L 717.8,-146.1 L 699.8,-152.6 L 704.7,-159.5 L 716.6,-161.4 Z M 802.0,-153.5 L 824.8,-150.8 L 814.3,-146.9 L 799.8,-147.8 L 782.9,-151.7 L 785.1,-155.0 L 802.0,-153.5 Z M 726.0,-133.7 L 734.7,-137.7 L 746.0,-138.6 L 758.9,-134.8 L 760.0,-132.1 L 746.3,-132.1 L 727.6,-133.2 L 726.0,-133.7 Z M -137.8,-205.9 L -120.0,-207.7 L -106.2,-207.8 L -104.3,-205.1 L -99.1,-207.5 L -90.5,-209.2 L -77.1,-207.0 L -80.6,-205.5 L -92.8,-204.2 L -101.0,-203.4 L -102.2,-201.8 L -112.9,-200.1 L -122.7,-202.5 L -117.5,-205.6 L -137.8,-205.9 Z M -338.8,56.7 L -355.5,56.9 L -366.7,55.7 L -364.7,51.3 L -352.1,48.1 L -342.6,49.8 L -338.6,51.4 L -339.5,54.2 L -338.8,56.7 Z M -59.0,-137.5 L -37.3,-146.3 L -39.7,-150.8 L -19.4,-156.1 L 10.6,-162.5 L 40.9,-164.4 L 56.5,-168.1 L 74.2,-169.4 L 80.5,-165.4 L 74.4,-162.3 L 42.2,-157.4 L 14.4,-152.6 L -13.8,-143.1 L -27.4,-133.3 L -41.6,-123.7 L -39.8,-115.4 L -22.4,-107.2 L -27.8,-106.3 L -57.5,-107.6 L -59.9,-112.1 L -76.3,-114.7 L -77.7,-120.1 L -68.4,-122.3 L -68.7,-127.7 L -50.7,-136.3 L -59.0,-137.5 Z M 753.8,63.0 L 756.9,72.6 L 756.7,82.4 L 760.4,92.5 L 769.6,110.2 L 756.1,106.9 L 750.5,121.4 L 759.4,131.6 L 759.1,138.6 L 752.3,132.6 L 746.3,140.3 L 744.6,131.9 L 745.6,122.2 L 744.6,111.4 L 746.7,103.8 L 747.1,90.5 L 741.8,80.6 L 742.6,67.0 L 751.0,62.4 L 747.4,57.7 L 751.4,56.3 L 753.8,63.0 Z M -2135.7,-72.1 L -2136.5,-65.8 L -2130.4,-63.4 L -2132.5,-70.6 L -2107.8,-69.1 L -2090.0,-59.8 L -2099.0,-55.4 L -2113.9,-54.4 L -2114.1,-44.6 L -2117.8,-42.5 L -2126.3,-42.8 L -2133.2,-46.3 L -2145.3,-49.2 L -2147.3,-53.6 L -2156.6,-55.2 L -2166.9,-53.9 L -2171.8,-57.4 L -2169.9,-61.1 L -2180.8,-58.7 L -2176.7,-54.0 L -2181.8,-49.8 L -2181.8,-89.6 L -2159.5,-82.0 L -2135.7,-72.1 Z M -2169.9,-108.9 L -2181.8,-108.3 L -2181.8,-115.2 L -2180.7,-115.6 L -2172.9,-115.6 L -2159.8,-112.7 L -2160.6,-111.3 L -2169.9,-108.9 Z M -241.5,140.3 L -239.1,137.8 L -232.6,139.9 L -229.7,140.3 L -228.5,142.3 L -227.2,142.6 L -227.1,143.5 L -222.6,145.9 L -213.4,145.3 L -215.1,148.9 L -225.1,150.6 L -237.4,156.4 L -242.5,154.4 L -240.5,149.7 L -250.4,146.7 L -248.8,144.8 L -240.1,141.5 L -241.5,140.3 Z"/>
    <path d="M 590.6,688.9 L 591.7,686.6 L 599.5,684.3 L 605.9,684.0 L 608.7,682.7 L 612.1,684.0 L 608.8,686.7 L 599.3,691.1 L 591.7,693.9 L 591.5,690.9 L 590.6,688.9 Z"/>
    <path d="M 387.1,478.1 L 385.0,466.1 L 390.8,457.7 L 402.6,455.8 L 411.1,457.3 L 418.6,461.2 L 422.7,454.3 L 430.8,458.0 L 432.9,464.6 L 431.7,476.6 L 416.5,484.3 L 420.5,490.4 L 410.9,491.1 L 403.0,495.1 L 395.4,493.7 L 391.7,488.5 L 387.1,478.1 Z"/>
    <path d="M 411.1,457.3 L 402.6,455.8 L 390.8,457.7 L 385.0,466.1 L 387.1,478.1 L 379.0,473.5 L 371.2,473.7 L 372.5,465.9 L 364.5,465.9 L 363.8,476.9 L 358.9,491.5 L 355.9,500.4 L 356.6,507.6 L 362.5,507.9 L 366.2,517.0 L 367.8,525.7 L 372.9,531.4 L 378.4,532.6 L 383.1,537.8 L 380.1,541.9 L 374.1,543.1 L 373.4,538.0 L 366.0,533.6 L 364.4,535.4 L 360.8,531.5 L 359.3,526.6 L 354.4,520.9 L 350.0,516.2 L 348.5,522.1 L 346.8,516.5 L 347.8,510.3 L 350.5,500.7 L 354.9,490.4 L 359.9,481.1 L 356.3,472.0 L 356.5,467.3 L 355.4,461.7 L 349.4,453.8 L 347.2,448.8 L 350.3,446.9 L 353.7,438.2 L 349.9,431.6 L 344.2,424.3 L 339.8,415.5 L 343.6,413.7 L 347.8,402.9 L 354.2,402.5 L 359.5,398.1 L 364.7,395.8 L 368.6,398.9 L 369.1,404.9 L 375.3,405.4 L 373.1,415.9 L 373.3,424.9 L 382.9,418.9 L 385.6,420.7 L 390.9,420.4 L 392.7,416.9 L 399.6,417.6 L 406.5,425.7 L 407.1,435.6 L 414.4,444.3 L 414.0,452.8 L 411.1,457.3 Z"/>
    <path d="M 430.8,458.0 L 422.7,454.3 L 418.6,461.2 L 411.1,457.3 L 414.0,452.8 L 414.4,444.3 L 407.1,435.6 L 406.5,425.7 L 399.6,417.6 L 392.7,416.9 L 390.9,420.4 L 385.6,420.7 L 382.9,418.9 L 373.3,424.9 L 373.1,415.9 L 375.3,405.4 L 369.1,404.9 L 368.6,398.9 L 364.7,395.8 L 366.6,392.1 L 374.4,385.6 L 375.2,388.0 L 380.0,388.3 L 378.7,376.8 L 383.4,375.4 L 388.7,383.2 L 392.8,392.3 L 404.0,392.4 L 407.5,401.1 L 401.7,403.8 L 399.1,407.3 L 410.0,413.3 L 417.5,425.1 L 423.2,434.0 L 430.1,440.9 L 432.4,448.0 L 430.8,458.0 Z"/>
    <path d="M 364.7,395.8 L 359.5,398.1 L 354.2,402.5 L 347.8,402.9 L 343.6,413.7 L 339.8,415.5 L 344.2,424.3 L 349.9,431.6 L 353.7,438.2 L 350.3,446.9 L 347.2,448.8 L 349.4,453.8 L 355.4,461.7 L 356.5,467.3 L 356.3,472.0 L 359.9,481.1 L 354.9,490.4 L 350.5,500.7 L 349.6,493.2 L 352.4,485.6 L 349.3,479.7 L 350.1,468.8 L 346.4,463.6 L 343.4,451.6 L 341.8,439.0 L 337.9,430.7 L 331.9,435.7 L 321.5,442.9 L 316.4,442.0 L 310.8,439.6 L 313.9,427.2 L 312.0,417.9 L 304.9,406.3 L 306.0,402.7 L 300.7,401.4 L 294.3,393.3 L 293.7,385.2 L 296.8,386.8 L 297.0,379.6 L 301.5,377.2 L 300.5,373.0 L 302.6,369.6 L 303.0,359.2 L 310.1,361.5 L 314.1,353.2 L 314.6,348.4 L 319.6,340.0 L 319.3,334.3 L 331.1,327.4 L 337.6,329.2 L 336.8,323.0 L 340.0,321.2 L 339.3,317.4 L 344.7,316.6 L 347.7,322.5 L 351.7,324.9 L 351.9,332.6 L 351.6,340.8 L 343.0,349.2 L 341.9,361.0 L 351.5,359.4 L 353.6,368.6 L 359.4,370.5 L 356.7,378.8 L 363.5,382.6 L 367.4,384.4 L 374.1,381.5 L 374.4,385.6 L 366.6,392.1 L 364.7,395.8 Z"/>
    <path d="M 403.0,495.1 L 410.9,491.1 L 420.5,490.4 L 416.5,484.3 L 431.7,476.6 L 432.9,464.6 L 430.8,458.0 L 432.4,448.0 L 430.1,440.9 L 423.2,434.0 L 417.5,425.1 L 410.0,413.3 L 399.1,407.3 L 401.7,403.8 L 407.5,401.1 L 404.0,392.4 L 392.8,392.3 L 388.7,383.2 L 383.4,375.4 L 388.2,372.9 L 395.5,373.0 L 404.3,371.8 L 412.1,366.5 L 416.5,370.2 L 424.8,372.1 L 423.3,377.8 L 427.7,381.9 L 436.8,384.5 L 424.7,393.0 L 417.1,402.5 L 415.1,409.4 L 422.1,420.0 L 430.6,433.0 L 438.8,439.2 L 444.3,447.2 L 448.5,465.7 L 447.3,483.3 L 439.7,489.9 L 429.3,496.4 L 421.9,504.7 L 410.5,514.0 L 407.2,507.6 L 409.8,500.8 L 403.0,495.1 Z"/>
    <path d="M 643.5,177.8 L 643.5,177.8 L 643.5,177.8 L 643.5,177.8 Z M 642.2,176.0 L 642.2,176.0 L 643.5,177.8 L 640.0,177.2 L 636.1,180.6 L 633.3,184.0 L 633.7,191.2 L 629.0,193.4 L 627.4,195.1 L 623.9,198.1 L 617.9,199.7 L 613.9,202.4 L 613.7,206.8 L 612.6,207.9 L 616.2,209.5 L 621.4,213.9 L 620.1,216.3 L 616.2,217.0 L 609.8,217.4 L 606.2,222.0 L 602.2,221.6 L 601.6,222.5 L 597.2,220.6 L 596.1,222.5 L 593.4,223.3 L 593.1,221.4 L 590.7,220.5 L 588.3,218.9 L 590.8,214.5 L 592.9,213.3 L 592.1,211.5 L 594.4,206.1 L 593.8,204.5 L 588.5,203.4 L 584.2,200.7 L 591.6,194.3 L 601.7,188.9 L 607.9,181.8 L 612.2,185.0 L 620.1,185.3 L 618.7,180.1 L 632.7,175.8 L 636.3,170.1 L 642.2,176.0 Z"/>
    <path d="M 601.6,222.5 L 602.2,221.6 L 606.2,222.0 L 609.8,217.4 L 616.2,217.0 L 620.1,216.3 L 621.4,213.9 L 629.2,225.7 L 631.5,232.2 L 631.5,243.7 L 628.1,249.2 L 619.9,251.1 L 612.6,255.2 L 604.4,256.1 L 603.4,250.7 L 605.1,243.2 L 601.1,232.7 L 607.8,231.1 L 601.6,222.5 Z"/>
    <path d="M 252.3,107.0 L 261.9,105.3 L 279.2,96.7 L 293.0,92.0 L 300.9,95.0 L 310.4,95.2 L 316.5,99.9 L 325.6,100.2 L 338.7,102.7 L 347.6,95.8 L 343.9,89.9 L 353.3,79.5 L 363.5,83.7 L 371.7,84.8 L 382.4,87.4 L 384.1,94.9 L 397.1,99.1 L 405.7,97.2 L 417.2,95.9 L 426.3,97.3 L 435.2,102.1 L 440.7,107.2 L 449.1,107.1 L 460.6,108.7 L 468.9,106.2 L 480.9,104.6 L 494.2,97.5 L 499.7,98.6 L 504.4,101.9 L 515.3,101.1 L 510.8,108.7 L 504.4,118.6 L 506.8,122.7 L 511.9,121.5 L 520.9,123.0 L 527.9,119.3 L 535.2,122.5 L 543.4,129.5 L 542.4,133.1 L 535.2,131.9 L 522.0,133.3 L 515.6,136.1 L 509.0,142.7 L 495.1,146.6 L 486.0,151.9 L 476.7,149.9 L 471.6,149.0 L 466.8,155.4 L 469.7,159.3 L 471.2,162.6 L 464.8,165.9 L 458.3,171.3 L 447.7,174.8 L 434.0,175.2 L 419.4,178.7 L 408.8,184.0 L 404.7,180.9 L 393.7,180.9 L 380.3,174.9 L 371.3,173.4 L 359.2,174.8 L 340.5,172.5 L 330.4,172.7 L 325.1,166.8 L 321.0,157.6 L 315.4,156.5 L 304.4,150.2 L 292.1,148.8 L 281.3,147.1 L 278.1,142.8 L 281.6,131.1 L 275.3,123.1 L 262.3,119.3 L 254.7,114.0 L 252.3,107.0 Z"/>
    <path d="M 339.3,317.4 L 340.0,321.2 L 336.8,323.0 L 337.6,329.2 L 331.1,327.4 L 319.3,334.3 L 319.6,340.0 L 314.6,348.4 L 314.1,353.2 L 310.1,361.5 L 303.0,359.2 L 302.6,369.6 L 300.5,373.0 L 301.5,377.2 L 297.0,379.6 L 292.2,363.7 L 289.7,363.8 L 288.2,370.1 L 283.3,365.0 L 286.1,359.3 L 290.1,358.7 L 294.3,350.2 L 289.1,348.5 L 280.7,348.7 L 272.0,347.3 L 271.2,340.3 L 266.9,339.9 L 259.7,335.5 L 256.5,342.3 L 263.0,347.6 L 257.3,351.3 L 255.3,355.0 L 260.9,357.7 L 259.4,363.7 L 262.5,371.2 L 263.9,379.4 L 262.6,383.1 L 256.4,383.0 L 245.2,385.0 L 245.8,392.6 L 240.9,398.5 L 227.8,405.2 L 217.6,417.0 L 210.8,423.3 L 201.8,429.8 L 201.7,434.4 L 197.2,436.9 L 189.0,440.5 L 184.8,441.0 L 182.0,448.6 L 183.9,461.6 L 184.4,469.9 L 180.6,479.4 L 180.5,496.4 L 175.8,496.9 L 171.7,504.5 L 174.5,507.8 L 166.2,510.7 L 163.1,517.5 L 159.5,520.3 L 150.8,511.0 L 146.6,497.0 L 143.1,486.9 L 140.0,482.2 L 135.1,472.6 L 132.9,460.1 L 131.3,453.8 L 123.0,440.1 L 119.3,420.7 L 116.6,407.9 L 116.6,395.8 L 114.8,386.4 L 101.6,392.4 L 95.2,391.2 L 83.3,379.1 L 87.7,375.5 L 85.0,371.6 L 74.3,363.1 L 80.4,356.4 L 100.4,356.4 L 98.6,347.8 L 93.5,342.8 L 92.4,335.1 L 86.5,330.6 L 96.5,320.1 L 107.1,320.9 L 116.6,310.4 L 122.3,300.2 L 131.1,290.2 L 131.0,283.1 L 138.7,277.3 L 131.4,272.4 L 128.2,265.6 L 125.0,256.8 L 129.5,252.5 L 143.2,255.0 L 153.4,253.5 L 162.2,245.1 L 171.9,256.8 L 171.0,264.9 L 174.6,270.1 L 174.3,275.2 L 167.8,273.8 L 170.4,284.8 L 179.3,291.2 L 191.9,298.2 L 186.2,302.7 L 182.6,312.1 L 191.4,315.8 L 200.0,320.7 L 211.9,326.4 L 224.3,327.7 L 229.6,332.7 L 236.6,333.7 L 247.5,336.0 L 255.1,335.9 L 256.1,331.9 L 254.9,325.5 L 255.6,321.2 L 261.2,319.1 L 261.9,327.0 L 262.1,329.0 L 270.4,332.8 L 276.1,331.2 L 283.8,331.9 L 291.2,331.6 L 291.9,325.5 L 288.2,322.3 L 295.5,321.0 L 303.8,313.6 L 314.2,307.2 L 321.9,309.7 L 328.3,305.5 L 332.6,311.7 L 329.5,315.9 L 339.3,317.4 Z"/>
    <path d="M 297.0,379.6 L 296.8,386.8 L 293.7,385.2 L 294.3,393.3 L 291.7,388.1 L 291.1,383.0 L 289.4,378.2 L 285.6,372.3 L 277.2,371.9 L 278.1,376.1 L 275.2,381.6 L 271.3,379.6 L 270.0,381.4 L 267.4,380.3 L 263.9,379.4 L 262.5,371.2 L 259.4,363.7 L 260.9,357.7 L 255.3,355.0 L 257.3,351.3 L 263.0,347.6 L 256.5,342.3 L 259.7,335.5 L 266.9,339.9 L 271.2,340.3 L 272.0,347.3 L 280.7,348.7 L 289.1,348.5 L 294.3,350.2 L 290.1,358.7 L 286.1,359.3 L 283.3,365.0 L 288.2,370.1 L 289.7,363.8 L 292.2,363.7 L 297.0,379.6 Z"/>
    <path d="M 288.2,322.3 L 291.9,325.5 L 291.2,331.6 L 283.8,331.9 L 276.1,331.2 L 270.4,332.8 L 262.1,329.0 L 261.9,327.0 L 268.0,319.6 L 272.9,317.0 L 279.4,319.4 L 284.2,319.6 L 288.2,322.3 Z"/>
    <path d="M 255.6,321.2 L 254.9,325.5 L 256.1,331.9 L 255.1,335.9 L 247.5,336.0 L 236.6,333.7 L 229.6,332.7 L 224.3,327.7 L 211.9,326.4 L 200.0,320.7 L 191.4,315.8 L 182.6,312.1 L 186.2,302.7 L 191.9,298.2 L 195.7,295.8 L 203.0,298.8 L 212.2,305.4 L 217.3,306.8 L 220.3,311.6 L 227.4,313.6 L 234.8,318.0 L 245.0,320.3 L 255.6,321.2 Z"/>
    <path d="M 162.2,245.1 L 153.4,253.5 L 143.2,255.0 L 129.5,252.5 L 125.0,256.8 L 128.2,265.6 L 131.4,272.4 L 138.7,277.3 L 131.0,283.1 L 131.1,290.2 L 122.3,300.2 L 116.6,310.4 L 107.1,320.9 L 96.5,320.1 L 86.5,330.6 L 92.4,335.1 L 93.5,342.8 L 98.6,347.8 L 100.4,356.4 L 80.4,356.4 L 74.3,363.1 L 67.7,360.6 L 65.0,353.4 L 57.9,345.7 L 41.2,347.6 L 26.4,347.8 L 13.6,349.2 L 17.0,337.6 L 30.2,332.4 L 29.4,327.8 L 25.0,326.2 L 24.8,317.4 L 16.1,313.0 L 12.4,307.0 L 7.9,301.7 L 23.2,306.8 L 32.3,305.3 L 37.7,306.6 L 39.5,304.4 L 45.9,305.3 L 57.7,301.1 L 58.0,292.6 L 63.1,287.0 L 69.8,287.0 L 70.8,284.2 L 77.8,282.9 L 81.2,283.8 L 84.7,281.0 L 84.2,275.0 L 88.1,268.9 L 93.9,266.4 L 90.3,259.8 L 98.9,260.1 L 101.4,256.5 L 101.0,252.7 L 105.6,248.5 L 104.5,243.5 L 102.4,239.3 L 107.7,234.9 L 117.5,232.8 L 127.9,231.6 L 132.5,229.8 L 137.8,228.7 L 144.5,233.3 L 147.2,241.0 L 162.2,245.1 Z"/>
    <path d="M 59.3,226.4 L 64.3,226.4 L 71.2,228.6 L 74.0,229.8 L 80.5,226.6 L 83.6,228.5 L 86.5,223.9 L 92.0,224.1 L 93.4,222.6 L 94.3,218.6 L 98.2,215.1 L 103.2,217.4 L 102.2,220.5 L 104.9,220.9 L 104.1,229.3 L 107.7,232.6 L 110.8,230.5 L 114.9,229.5 L 120.5,225.0 L 126.8,225.8 L 136.2,225.8 L 137.8,228.7 L 132.5,229.8 L 127.9,231.6 L 117.5,232.8 L 107.7,234.9 L 102.4,239.3 L 104.5,243.5 L 105.6,248.5 L 101.0,252.7 L 101.4,256.5 L 98.9,260.1 L 90.3,259.8 L 93.9,266.4 L 88.1,268.9 L 84.2,275.0 L 84.7,281.0 L 81.2,283.8 L 77.8,282.9 L 70.8,284.2 L 69.8,287.0 L 63.1,287.0 L 58.0,292.6 L 57.7,301.1 L 45.9,305.3 L 39.5,304.4 L 37.7,306.6 L 32.3,305.3 L 23.2,306.8 L 7.9,301.7 L 16.2,292.6 L 15.4,286.2 L 8.6,284.5 L 7.9,278.2 L 4.9,270.2 L 8.8,264.7 L 4.8,263.2 L 7.3,256.0 L 11.0,243.5 L 20.3,247.3 L 27.1,246.0 L 29.0,241.4 L 36.2,239.9 L 41.3,236.9 L 43.1,228.9 L 50.8,226.9 L 52.2,223.4 L 56.5,226.1 L 59.3,226.4 Z"/>
    <path d="M 71.2,228.6 L 76.3,218.4 L 74.3,211.0 L 67.7,208.6 L 70.0,204.2 L 77.6,204.7 L 81.9,199.1 L 84.8,192.7 L 97.0,190.4 L 95.1,195.0 L 96.4,197.8 L 100.1,197.6 L 96.8,200.6 L 86.9,199.0 L 86.0,204.7 L 95.9,204.0 L 107.1,207.2 L 124.3,205.7 L 126.6,214.9 L 129.6,213.9 L 135.1,216.2 L 134.8,220.1 L 136.2,225.8 L 126.8,225.8 L 120.5,225.0 L 114.9,229.5 L 110.8,230.5 L 107.7,232.6 L 104.1,229.3 L 104.9,220.9 L 102.2,220.5 L 103.2,217.4 L 98.2,215.1 L 94.3,218.6 L 93.4,222.6 L 92.0,224.1 L 86.5,223.9 L 83.6,228.5 L 80.5,226.6 L 74.0,229.8 L 71.2,228.6 Z"/>
    <path d="M 99.7,177.3 L 101.7,173.0 L 107.7,171.5 L 122.6,175.0 L 124.0,169.1 L 129.2,167.0 L 142.2,171.2 L 145.5,170.1 L 160.5,170.4 L 174.0,171.4 L 178.6,175.0 L 184.2,176.5 L 182.9,178.8 L 168.6,184.2 L 165.3,188.1 L 153.7,189.3 L 150.2,195.7 L 140.6,194.4 L 134.3,196.3 L 125.7,201.1 L 126.9,203.4 L 124.3,205.7 L 107.1,207.2 L 95.9,204.0 L 86.0,204.7 L 86.9,199.0 L 96.8,200.6 L 100.1,197.6 L 107.0,198.5 L 118.7,191.3 L 107.9,186.1 L 101.4,188.6 L 94.7,184.8 L 102.4,178.3 L 99.7,177.3 Z"/>
    <path d="M -68.2,182.2 L -64.1,178.8 L -53.8,176.8 L -47.7,179.6 L -41.3,187.4 L -36.7,186.9 L -26.4,186.8 L -27.9,181.7 L -20.1,178.3 L -12.5,172.5 L -0.2,177.8 L 0.8,185.7 L 4.2,187.8 L 14.1,187.3 L 17.1,189.2 L 21.6,199.5 L 32.0,206.4 L 37.9,211.1 L 47.4,216.0 L 59.5,220.3 L 59.3,226.4 L 56.5,226.1 L 52.2,223.4 L 50.8,226.9 L 43.1,228.9 L 41.3,236.9 L 36.2,239.9 L 29.0,241.4 L 27.1,246.0 L 20.3,247.3 L 11.0,243.5 L 10.2,235.1 L 3.4,234.7 L -7.0,225.9 L -14.2,224.8 L -24.3,219.7 L -30.7,218.8 L -34.7,220.6 L -40.8,220.4 L -47.3,226.1 L -55.3,228.0 L -56.9,220.9 L -55.6,210.5 L -62.7,207.1 L -60.4,200.2 L -66.4,199.7 L -64.4,191.2 L -55.8,193.7 L -47.8,190.5 L -54.5,184.5 L -57.1,178.8 L -64.4,181.3 L -65.3,188.6 L -68.2,182.2 Z"/>
    <path d="M -103.9,300.7 L -109.0,295.5 L -109.0,290.1 L -112.0,290.2 L -110.5,282.9 L -115.1,275.3 L -126.3,269.8 L -132.6,260.3 L -130.5,252.5 L -125.9,249.1 L -126.6,243.2 L -132.5,240.2 L -138.4,228.3 L -138.4,228.3 L -143.4,220.3 L -141.6,217.2 L -144.5,205.7 L -138.2,202.9 L -136.8,206.6 L -132.2,211.3 L -126.0,212.6 L -122.7,212.3 L -112.0,204.9 L -108.5,204.2 L -105.9,207.1 L -109.0,212.1 L -103.3,217.3 L -101.1,216.8 L -98.2,224.2 L -89.6,226.3 L -83.3,231.3 L -70.3,233.0 L -56.1,230.3 L -55.3,228.0 L -47.3,226.1 L -40.8,220.4 L -34.7,220.6 L -30.7,218.8 L -24.3,219.7 L -14.2,224.8 L -7.0,225.9 L 3.4,234.7 L 10.2,235.1 L 11.0,243.5 L 7.3,256.0 L 4.8,263.2 L 8.8,264.7 L 4.9,270.2 L 7.9,278.2 L 8.6,284.5 L 15.4,286.2 L 16.2,292.6 L 7.9,301.7 L 12.4,307.0 L 16.1,313.0 L 24.8,317.4 L 25.0,326.2 L 29.4,327.8 L 30.2,332.4 L 17.0,337.6 L 13.6,349.2 L -3.5,346.2 L -13.4,343.9 L -23.7,342.6 L -27.5,330.3 L -31.9,328.6 L -38.9,330.4 L -48.0,335.2 L -59.2,331.9 L -68.3,324.2 L -77.1,321.3 L -83.2,311.9 L -89.9,298.5 L -94.8,300.1 L -100.5,296.8 L -103.9,300.7 Z"/>
    <path d="M 198.1,524.8 L 196.7,535.2 L 192.9,538.0 L 185.0,540.3 L 180.7,532.4 L 179.0,518.0 L 183.2,501.8 L 189.4,507.3 L 193.7,514.4 L 198.1,524.8 Z"/>
    <path d="M 449.8,418.0 L 442.3,414.9 L 442.1,406.3 L 446.5,401.8 L 456.5,399.0 L 461.7,399.2 L 463.7,403.0 L 459.7,407.4 L 457.6,413.2 L 449.8,418.0 Z M 184.2,176.5 L 183.5,170.8 L 189.7,168.2 L 181.5,150.8 L 199.5,146.8 L 204.2,144.6 L 210.7,126.7 L 228.8,130.0 L 233.8,125.5 L 234.3,115.4 L 241.8,114.5 L 248.7,107.9 L 252.3,107.0 L 254.7,114.0 L 262.3,119.3 L 275.3,123.1 L 281.6,131.1 L 278.1,142.8 L 281.3,147.1 L 292.1,148.8 L 304.4,150.2 L 315.4,156.5 L 321.0,157.6 L 325.1,166.8 L 330.4,172.7 L 340.5,172.5 L 359.2,174.8 L 371.3,173.4 L 380.3,174.9 L 393.7,180.9 L 404.7,180.9 L 408.8,184.0 L 419.4,178.7 L 434.0,175.2 L 447.7,174.8 L 458.3,171.3 L 464.8,165.9 L 471.2,162.6 L 469.7,159.3 L 466.8,155.4 L 471.6,149.0 L 476.7,149.9 L 486.0,151.9 L 495.1,146.6 L 509.0,142.7 L 515.6,136.1 L 522.0,133.3 L 535.2,131.9 L 542.4,133.1 L 543.4,129.5 L 535.2,122.5 L 527.9,119.3 L 520.9,123.0 L 511.9,121.5 L 506.8,122.7 L 504.4,118.6 L 510.8,108.7 L 515.3,101.1 L 526.2,104.9 L 539.0,98.6 L 538.9,94.2 L 547.1,83.6 L 552.2,80.4 L 552.1,74.8 L 547.1,72.5 L 554.6,67.5 L 565.9,65.7 L 577.9,65.4 L 591.5,68.4 L 599.5,72.1 L 605.1,82.2 L 608.5,86.5 L 611.7,92.6 L 615.1,102.4 L 630.9,105.6 L 641.7,112.7 L 645.3,122.1 L 659.2,122.1 L 667.0,118.2 L 682.1,115.2 L 677.3,124.2 L 673.7,127.9 L 670.6,138.8 L 664.5,148.6 L 653.5,146.8 L 645.7,150.3 L 648.1,158.9 L 646.8,170.7 L 642.1,171.0 L 642.2,176.0 L 636.3,170.1 L 632.7,175.8 L 618.7,180.1 L 620.1,185.3 L 612.2,185.0 L 607.9,181.8 L 601.7,188.9 L 591.6,194.3 L 584.2,200.7 L 571.5,203.6 L 564.8,208.3 L 555.0,211.0 L 559.9,206.4 L 558.0,202.5 L 565.2,195.8 L 560.4,190.5 L 552.4,194.1 L 542.2,201.0 L 536.6,207.5 L 527.7,208.0 L 523.0,212.6 L 527.8,219.4 L 535.3,221.0 L 535.6,225.5 L 542.8,228.4 L 552.9,221.3 L 561.0,225.2 L 566.9,225.5 L 568.4,230.7 L 555.5,233.5 L 551.2,238.9 L 542.4,243.9 L 537.7,250.9 L 547.5,256.4 L 551.1,266.2 L 556.6,275.4 L 562.8,283.1 L 562.7,290.5 L 556.9,293.2 L 559.1,298.6 L 564.5,301.7 L 563.1,309.8 L 560.8,317.7 L 555.7,318.6 L 549.0,329.5 L 541.7,342.6 L 533.2,354.5 L 520.7,363.8 L 508.1,372.2 L 497.9,373.3 L 492.3,377.8 L 489.2,374.5 L 484.0,379.5 L 471.3,384.5 L 461.7,386.0 L 458.6,396.6 L 453.5,397.2 L 451.2,389.9 L 453.3,386.0 L 441.1,382.8 L 436.8,384.5 L 427.7,381.9 L 423.3,377.8 L 424.8,372.1 L 416.5,370.2 L 412.1,366.5 L 404.3,371.8 L 395.5,373.0 L 388.2,372.9 L 383.4,375.4 L 378.7,376.8 L 380.0,388.3 L 375.2,388.0 L 374.4,385.6 L 374.1,381.5 L 367.4,384.4 L 363.5,382.6 L 356.7,378.8 L 359.4,370.5 L 353.6,368.6 L 351.5,359.4 L 341.9,361.0 L 343.0,349.2 L 351.6,340.8 L 351.9,332.6 L 351.7,324.9 L 347.7,322.5 L 344.7,316.6 L 339.3,317.4 L 329.5,315.9 L 332.6,311.7 L 328.3,305.5 L 321.9,309.7 L 314.2,307.2 L 303.8,313.6 L 295.5,321.0 L 288.2,322.3 L 284.2,319.6 L 279.4,319.4 L 272.9,317.0 L 268.0,319.6 L 261.9,327.0 L 261.2,319.1 L 255.6,321.2 L 245.0,320.3 L 234.8,318.0 L 227.4,313.6 L 220.3,311.6 L 217.3,306.8 L 212.2,305.4 L 203.0,298.8 L 195.7,295.8 L 191.9,298.2 L 179.3,291.2 L 170.4,284.8 L 167.8,273.8 L 174.3,275.2 L 174.6,270.1 L 171.0,264.9 L 171.9,256.8 L 162.2,245.1 L 147.2,241.0 L 144.5,233.3 L 137.8,228.7 L 136.2,225.8 L 134.8,220.1 L 135.1,216.2 L 129.6,213.9 L 126.6,214.9 L 124.3,205.7 L 126.9,203.4 L 125.7,201.1 L 134.3,196.3 L 140.6,194.4 L 150.2,195.7 L 153.7,189.3 L 165.3,188.1 L 168.6,184.2 L 182.9,178.8 L 184.2,176.5 Z"/>
    <path d="M 561.6,356.1 L 556.1,372.1 L 552.2,380.3 L 547.5,371.9 L 546.4,364.4 L 551.8,354.6 L 559.0,347.0 L 563.2,350.0 L 561.6,356.1 Z"/>
    <path d="M 553.0,473.0 L 548.4,465.3 L 556.2,465.7 L 559.3,469.3 L 556.9,477.9 L 553.0,473.0 Z M 569.0,500.2 L 571.2,497.4 L 572.2,491.2 L 577.3,490.6 L 575.8,497.3 L 582.5,487.7 L 581.7,497.2 L 578.4,500.5 L 575.5,506.8 L 572.7,509.8 L 567.1,502.9 L 569.0,500.2 Z M 603.4,515.9 L 604.4,522.5 L 604.9,528.1 L 601.8,537.3 L 598.5,527.1 L 594.2,532.1 L 597.1,539.5 L 594.5,544.2 L 583.8,538.4 L 581.3,531.1 L 584.0,526.4 L 578.3,521.7 L 575.4,525.8 L 571.1,525.4 L 564.4,531.0 L 562.9,528.1 L 566.5,519.7 L 572.2,516.8 L 577.2,513.1 L 580.4,517.6 L 587.3,514.9 L 588.8,510.4 L 595.2,510.1 L 594.7,502.4 L 602.0,507.1 L 602.8,512.2 L 603.4,515.9 Z M 531.9,506.8 L 519.8,516.3 L 524.2,509.3 L 530.8,503.2 L 536.2,496.2 L 541.0,486.3 L 542.6,494.5 L 536.6,500.0 L 531.9,506.8 Z M 566.7,417.8 L 565.2,421.9 L 568.3,429.1 L 565.9,437.4 L 560.6,440.7 L 559.1,448.8 L 561.2,456.7 L 566.0,457.8 L 570.0,456.6 L 581.4,462.2 L 580.5,467.6 L 583.5,470.0 L 582.5,474.6 L 575.4,469.7 L 572.1,464.5 L 569.7,468.1 L 564.0,462.2 L 555.7,463.6 L 551.2,461.4 L 551.6,457.3 L 554.5,454.7 L 551.8,452.4 L 550.6,456.0 L 546.1,450.3 L 544.7,445.9 L 544.4,436.4 L 548.1,439.7 L 549.0,424.0 L 552.0,414.9 L 557.5,415.0 L 563.1,417.8 L 565.9,415.2 L 566.7,417.8 Z M 564.0,485.8 L 562.6,481.1 L 568.0,484.2 L 573.8,484.2 L 573.6,488.3 L 569.4,492.6 L 563.7,495.6 L 563.3,490.9 L 564.0,485.8 Z M 595.5,478.4 L 598.0,489.5 L 591.0,486.9 L 591.2,490.2 L 593.4,496.4 L 589.1,498.7 L 588.7,491.6 L 586.0,491.1 L 584.6,485.0 L 589.9,485.8 L 589.8,482.1 L 584.2,474.4 L 593.0,474.6 L 595.5,478.4 Z"/>
    <path d="M 364.4,535.4 L 366.0,533.6 L 373.4,538.0 L 374.1,543.1 L 380.1,541.9 L 383.1,537.8 L 385.2,538.7 L 390.6,544.8 L 394.4,551.4 L 394.9,558.2 L 393.9,562.7 L 394.8,566.2 L 395.5,572.1 L 398.7,574.8 L 402.3,583.7 L 402.1,587.1 L 395.6,587.7 L 387.0,580.3 L 376.3,572.4 L 375.2,567.3 L 370.0,560.6 L 368.7,552.3 L 365.4,546.9 L 366.4,539.6 L 364.4,535.4 Z M 526.2,558.6 L 518.3,556.9 L 507.9,556.9 L 504.7,568.3 L 501.2,571.8 L 496.6,585.7 L 489.1,587.8 L 480.5,585.0 L 476.2,585.9 L 470.9,591.0 L 465.1,590.2 L 459.2,592.3 L 453.0,586.6 L 451.5,579.9 L 458.1,583.4 L 465.2,581.5 L 467.0,573.0 L 470.9,571.1 L 481.8,569.0 L 488.3,561.1 L 492.8,554.7 L 496.9,559.9 L 498.8,556.5 L 503.2,556.8 L 503.7,550.4 L 504.1,545.5 L 511.1,538.6 L 515.7,530.8 L 519.4,530.7 L 524.0,535.8 L 524.4,540.1 L 530.4,542.9 L 538.0,545.9 L 537.4,549.8 L 531.3,550.3 L 532.9,555.2 L 526.2,558.6 Z"/>
    <path d="M 504.1,545.5 L 503.7,550.4 L 503.2,556.8 L 498.8,556.5 L 496.9,559.9 L 492.8,554.7 L 496.4,551.0 L 504.1,545.5 Z"/>
    <path d="M 744.4,208.2 L 736.0,218.3 L 736.1,228.6 L 732.7,236.6 L 734.3,241.6 L 729.6,248.6 L 718.0,253.3 L 702.0,253.9 L 689.0,265.4 L 682.9,261.5 L 682.5,254.0 L 666.7,256.2 L 656.0,261.0 L 645.3,261.1 L 654.5,268.5 L 648.5,285.5 L 642.6,289.7 L 638.2,285.8 L 640.4,276.8 L 634.7,273.9 L 631.0,267.0 L 639.6,264.0 L 644.3,257.7 L 653.5,252.5 L 660.2,245.7 L 678.3,242.7 L 688.0,244.7 L 697.5,227.0 L 703.6,231.7 L 716.9,221.7 L 722.1,217.8 L 727.8,205.6 L 726.2,194.4 L 730.1,188.0 L 739.7,186.2 L 744.7,200.1 L 744.4,208.2 Z M 769.2,160.4 L 775.6,156.2 L 777.7,167.4 L 764.2,170.1 L 756.2,180.0 L 741.9,173.2 L 737.0,184.2 L 726.9,184.3 L 725.6,174.4 L 730.1,166.7 L 739.8,166.1 L 742.5,152.3 L 745.2,144.5 L 755.8,154.9 L 762.8,158.3 L 769.2,160.4 Z M 657.9,265.4 L 662.9,259.4 L 668.1,260.6 L 671.9,256.4 L 678.5,258.5 L 679.7,261.9 L 674.6,268.0 L 670.8,264.8 L 666.2,267.1 L 663.8,273.0 L 657.8,270.1 L 657.9,265.4 Z"/>
  </g>
</svg>
